<?xml version="1.0" encoding="UTF-8" standalone="no"?>
<!DOCTYPE svg PUBLIC "-//W3C//DTD SVG 1.1//EN" "http://www.w3.org/Graphics/SVG/1.1/DTD/svg11.dtd" >
<svg xmlns="http://www.w3.org/2000/svg">
<metadata>
This is a SVG font generated by e-font.
</metadata>
<defs>
<font id="ArtifaktLegendMediumItalic" horiz-adv-x="616" >
<font-face units-per-em="1000" ascent="1050" descent="-350" />
<missing-glyph horiz-adv-x="616" />
<glyph unicode="&#x20;" horiz-adv-x="265" />
<glyph unicode="&#x21;" horiz-adv-x="301" d="M162 700L95 228L195 228L262 700ZM121 -10C167 -10 194 21 194 64C194 99 169 128 128 128C84 128 55 95 55 52C55 20 79 -10 121 -10Z"/>
<glyph unicode="&#x22;" horiz-adv-x="406" d="M100 440L165 440L216 700L123 700ZM290 440L355 440L406 700L312 700Z"/>
<glyph unicode="&#x23;" horiz-adv-x="600" d="M594 448L614 529L535 529L577 700L479 700L437 529L274 529L316 700L218 700L176 529L97 529L77 448L156 448L108 252L29 252L9 171L88 171L46 0L144 0L186 171L349 171L307 0L405 0L447 171L526 171L546 252L467 252L515 448ZM369 252L206 252L254 448L417 448Z"/>
<glyph unicode="&#x24;" horiz-adv-x="593" d="M544 469C546 555 497 618 407 641L424 760L383 760L368 649C354 650 340 651 325 651L341 760L300 760L284 649C163 638 111 573 101 508C97 481 95 470 95 460C95 393 138 347 212 322L237 314L204 81C142 97 122 142 121 190L35 190C35 100 88 27 193 6L177 -110L218 -110L233 0C243 -1 252 -1 263 -1L276 -1L261 -110L301 -110L317 2C442 16 494 82 505 164C509 194 510 203 510 214C510 291 462 329 374 359L368 361L397 567C444 548 457 510 455 469ZM329 374L288 388L315 578L323 578C335 578 347 578 357 576ZM184 473C184 476 185 488 188 502C193 530 213 563 274 574L249 403C201 424 184 444 184 473ZM265 74L244 74L276 301L302 293C307 291 312 289 317 288L287 74ZM417 203C417 195 416 185 413 166C409 134 391 95 328 80L355 273C401 254 417 236 417 203Z"/>
<glyph unicode="&#x25;" horiz-adv-x="915" d="M243 333C344 333 399 391 412 483L429 600C430 609 431 617 431 626C431 705 375 752 284 752C177 752 122 695 109 600L92 483C91 475 90 467 90 459C90 381 146 333 243 333ZM211 0L297 0L738 740L653 740ZM246 398C197 398 168 423 168 467C168 472 168 477 169 482L186 601C195 658 228 689 279 689C325 689 353 664 353 620C353 613 353 607 352 601L335 482C328 428 296 398 246 398ZM667 -12C768 -12 823 46 836 138L852 255C853 264 854 272 854 281C854 360 798 407 707 407C600 407 545 350 532 255L515 138C514 130 513 122 513 114C513 36 569 -12 667 -12ZM669 53C620 53 592 78 592 122C592 127 592 132 593 137L610 256C618 313 651 344 702 344C748 344 776 319 776 274C776 268 776 262 775 256L758 137C751 83 719 53 669 53Z"/>
<glyph unicode="&#x26;" horiz-adv-x="592" d="M563 526C569 617 510 693 397 710L417 856L329 856L308 711C184 699 125 632 112 558C106 522 104 508 104 499C104 429 156 382 234 369C147 364 57 304 45 217C39 174 37 161 37 147C37 63 98 4 207 -9L184 -174L272 -174L295 -10C437 3 501 88 520 185L426 185C407 102 345 67 264 67C200 67 135 92 135 162C135 169 137 180 140 207C153 293 249 327 304 327L369 327L381 403L315 403C266 403 199 430 199 497C199 514 202 525 206 547C216 606 267 633 341 633C417 633 472 607 468 526Z"/>
<glyph unicode="&#x27;" horiz-adv-x="217" d="M100 440L165 440L216 700L123 700Z"/>
<glyph unicode="&#x28;" horiz-adv-x="400" d="M191 370C211 514 252 608 389 730L298 730C172 640 116 545 91 370L63 170C58 132 55 99 55 68C55 -43 92 -114 169 -190L260 -190C182 -99 155 -23 155 69C155 101 158 134 163 170Z"/>
<glyph unicode="&#x29;" horiz-adv-x="399" d="M232 730L141 730C219 639 246 563 246 471C246 439 243 406 238 370L210 170C190 26 149 -68 12 -190L103 -190C229 -100 285 -5 310 170L338 370C343 408 346 441 346 472C346 583 309 654 232 730Z"/>
<glyph unicode="&#x2a;" horiz-adv-x="438" d="M460 565L445 644L296 586L328 740L243 740L229 587L101 643L64 565L203 530L92 412L154 363L255 487L314 363L388 413L311 525Z"/>
<glyph unicode="&#x2b;" horiz-adv-x="600" d="M505 383L360 383L381 531L294 531L273 383L128 383L117 302L262 302L241 154L328 154L349 302L494 302Z"/>
<glyph unicode="&#x2c;" horiz-adv-x="274" d="M-8 -181L53 -181L140 -30C159 3 173 28 177 51C184 99 154 128 111 128C66 128 39 95 39 54C39 28 51 8 72 -3Z"/>
<glyph unicode="&#x2d;" horiz-adv-x="431" d="M381 383L83 383L72 302L370 302Z"/>
<glyph unicode="&#x2e;" horiz-adv-x="272" d="M103 -10C149 -10 176 21 176 64C176 99 151 128 110 128C66 128 37 95 37 52C37 20 61 -10 103 -10Z"/>
<glyph unicode="&#x2f;" horiz-adv-x="400" d="M29 -140L477 740L381 740L-67 -140Z"/>
<glyph unicode="&#x30;" horiz-adv-x="633" d="M295 -12C455 -12 538 75 560 229L593 467C595 482 596 496 596 510C596 638 505 712 370 712C201 712 118 622 97 467L64 229C62 215 61 202 61 189C61 64 152 -12 295 -12ZM297 69C214 69 163 112 163 195C163 205 163 216 165 227L199 469C214 575 273 631 364 631C443 631 493 587 493 504C493 493 493 481 491 469L457 227C442 123 386 69 297 69Z"/>
<glyph unicode="&#x31;" horiz-adv-x="407" d="M240 81L327 700L285 700L117 700L106 621L214 621L138 81L31 81L19 0L127 0L329 0L340 81Z"/>
<glyph unicode="&#x32;" horiz-adv-x="521" d="M507 502C512 536 513 545 513 555C513 629 456 712 309 712C164 712 78 628 57 511L153 511C166 586 219 631 303 631C387 631 411 583 411 547C411 543 410 533 405 504C398 451 351 393 290 338L0 78L-11 0L436 0L448 85L130 85L360 286C463 376 498 436 507 502Z"/>
<glyph unicode="&#x33;" horiz-adv-x="584" d="M256 -12C429 -12 496 72 511 173C516 209 518 224 518 237C518 321 446 367 394 375C454 388 520 437 530 503C536 546 537 554 537 565C537 653 455 712 332 712C178 712 92 626 72 521L168 521C182 581 232 631 323 631C384 631 436 608 436 547C436 540 435 528 432 507C423 432 348 409 291 409L222 409L211 332L280 332C332 332 417 312 417 229C417 219 416 208 411 177C398 101 339 69 257 69C158 69 111 121 109 179L15 179C10 73 102 -12 256 -12Z"/>
<glyph unicode="&#x34;" horiz-adv-x="574" d="M321 0L416 0L436 144L533 144L545 225L448 225L475 424L381 423L353 225L138 225L456 700L350 700L23 215L13 144L342 144Z"/>
<glyph unicode="&#x35;" horiz-adv-x="571" d="M267 -12C420 -12 494 72 511 173C520 224 522 242 522 257C522 363 436 432 307 432L198 432L223 613L542 613L555 700L136 700L87 351L281 351C360 351 420 323 420 244C420 233 419 218 413 178C402 115 347 69 267 69C170 69 128 129 128 179L34 179C31 77 113 -12 267 -12Z"/>
<glyph unicode="&#x36;" horiz-adv-x="581" d="M350 452C266 452 207 418 162 366L178 479C192 579 251 631 338 631C417 631 463 592 461 531L557 531C556 644 472 712 338 712C147 712 91 588 76 475L38 208C37 198 36 188 36 178C36 72 113 -12 261 -12C438 -12 510 97 526 209C533 255 534 267 534 280C534 373 465 452 350 452ZM425 211C411 130 366 70 266 70C178 70 138 121 138 183C138 189 138 196 139 202L148 267C194 332 251 380 330 380C400 380 432 331 432 273C432 261 431 246 425 211Z"/>
<glyph unicode="&#x37;" horiz-adv-x="532" d="M561 700L88 700L61 512L152 512L166 612L437 612L86 0L197 0L549 613Z"/>
<glyph unicode="&#x38;" horiz-adv-x="619" d="M283 -12C458 -12 534 59 551 161C558 205 560 220 560 235C560 323 498 366 440 379C486 392 555 434 566 506C572 546 574 562 574 574C574 658 491 712 367 712C220 712 139 650 126 557C120 517 118 501 118 489C118 427 166 392 214 379C148 364 60 316 47 226C38 165 37 161 37 151C37 51 137 -12 283 -12ZM328 411C255 411 218 444 218 491C218 499 220 512 224 542C234 612 296 636 363 636C415 636 474 618 474 556C474 549 472 537 468 506C457 432 391 411 328 411ZM288 68C207 68 141 96 141 164C141 171 143 185 147 218C160 307 234 337 318 337C390 338 459 311 459 236C459 232 459 226 452 179C440 95 371 68 288 68Z"/>
<glyph unicode="&#x39;" horiz-adv-x="581" d="M344 712C166 712 94 603 78 492C72 445 71 433 71 420C71 327 140 249 254 249C338 249 398 282 442 334L426 221C412 121 353 69 266 69C188 69 142 108 143 169L48 169C49 56 133 -12 267 -12C458 -12 513 112 529 225L567 492C568 502 569 512 569 522C569 628 491 712 344 712ZM274 320C205 320 172 369 172 427C172 439 173 454 179 489C193 570 238 630 339 630C427 630 467 579 467 517C467 511 467 504 466 498L456 433C410 368 354 320 274 320Z"/>
<glyph unicode="&#x3a;" horiz-adv-x="273" d="M158 374C204 374 231 406 231 449C231 484 206 512 165 512C121 512 92 479 92 437C92 405 116 374 158 374ZM104 -10C150 -10 177 21 177 64C177 99 152 128 111 128C67 128 38 95 38 52C38 20 62 -10 104 -10Z"/>
<glyph unicode="&#x3b;" horiz-adv-x="275" d="M157 374C203 374 230 406 230 449C230 484 205 512 164 512C120 512 91 479 91 437C91 405 115 374 157 374ZM-8 -181L53 -181L140 -30C159 3 173 28 177 51C184 99 154 128 111 128C66 128 39 95 39 54C39 28 51 8 72 -3Z"/>
<glyph unicode="&#x3c;" horiz-adv-x="601" d="M530 558L129 389L116 297L470 127L482 214L211 340L517 465Z"/>
<glyph unicode="&#x3d;" horiz-adv-x="600" d="M519 482L142 482L131 404L508 404ZM490 280L113 280L103 201L480 201Z"/>
<glyph unicode="&#x3e;" horiz-adv-x="601" d="M93 128L494 297L507 389L153 559L141 472L413 352L106 223Z"/>
<glyph unicode="&#x3f;" horiz-adv-x="483" d="M317 712C168 712 95 629 75 521L172 521C185 584 231 631 312 631C374 631 410 603 410 555C410 549 409 539 405 514C391 423 214 415 192 258L188 228L285 228L289 255C307 370 486 381 506 520C509 544 511 557 511 570C511 648 449 712 317 712ZM221 -10C268 -10 295 21 295 64C295 99 270 128 229 128C184 128 156 95 156 52C156 20 180 -10 221 -10Z"/>
<glyph unicode="&#x40;" horiz-adv-x="1021" d="M574 712C278 712 151 540 125 356C107 226 102 196 102 161C102 -26 243 -127 461 -127C521 -127 586 -121 644 -103L655 -32C606 -44 527 -54 472 -54C301 -54 192 22 192 176C192 202 197 232 214 356C234 504 339 640 577 640C757 640 849 544 849 404C849 388 847 372 845 355L834 280C823 199 789 148 740 148C691 148 676 174 676 215C676 228 678 242 680 257L711 471C667 499 608 516 551 516C409 516 351 437 334 316C326 255 323 236 323 218C323 132 371 80 457 80C523 80 573 118 611 160C619 120 652 75 736 75C845 75 906 164 920 268L934 365C936 381 937 396 937 411C937 574 817 712 574 712ZM476 152C433 152 413 171 413 220C413 231 413 246 423 311C436 401 471 445 547 445C581 445 600 440 619 431L587 209C560 180 524 152 476 152Z"/>
<glyph unicode="&#x41;" horiz-adv-x="635" d="M471 0L576 0L443 700L303 700L-15 0L92 0L180 200L435 200ZM367 627L421 284L217 284Z"/>
<glyph unicode="&#x42;" horiz-adv-x="648" d="M377 700L277 700L175 700L77 0L177 0L308 0C489 0 552 70 568 178L574 217C575 227 576 234 576 242C576 327 506 354 463 362C518 373 577 408 588 483L595 529C596 538 597 547 597 555C597 648 508 700 377 700ZM493 525L488 485C480 423 430 392 361 392L234 392L266 622L368 622C439 622 494 599 494 539C494 535 494 534 493 525ZM473 235C473 231 473 227 471 213L466 181C458 117 397 79 303 79L190 79L223 314L357 314C426 314 473 287 473 235Z"/>
<glyph unicode="&#x43;" horiz-adv-x="625" d="M304 -12C478 -12 542 83 569 200L471 200C454 122 406 69 310 69C214 69 168 125 168 208C168 221 169 236 172 256L199 447C215 559 271 631 379 631C471 631 520 563 511 500L608 500C609 507 609 515 609 521C609 623 528 712 378 712C211 712 122 605 100 454L71 258C67 232 67 218 67 204C67 76 156 -12 304 -12Z"/>
<glyph unicode="&#x44;" horiz-adv-x="684" d="M398 700L277 700L175 700L77 0L140 0L289 0C525 0 590 106 617 298C634 417 638 453 638 483C639 612 565 700 398 700ZM537 477C536 453 532 423 515 296C494 154 449 81 304 81L190 81L266 619L381 619C500 619 537 562 537 477Z"/>
<glyph unicode="&#x45;" horiz-adv-x="584" d="M559 621L570 700L277 700L175 700L77 0L79 0L472 0L484 79L190 79L223 317L495 317L506 396L234 396L266 621Z"/>
<glyph unicode="&#x46;" horiz-adv-x="543" d="M570 621L581 700L277 700L175 700L77 0L179 0L222 308L485 308L495 387L233 387L266 621Z"/>
<glyph unicode="&#x47;" horiz-adv-x="664" d="M623 510C627 615 550 712 391 712C210 712 122 609 96 427L70 250C68 234 67 218 67 204C67 61 171 -12 286 -12C368 -12 426 19 470 62L470 0L553 0L605 380L342 380L331 301L496 301L474 148C438 100 394 69 315 69C232 69 170 117 170 215C170 228 171 241 173 255L198 429C217 564 277 631 388 631C488 631 530 578 529 510Z"/>
<glyph unicode="&#x48;" horiz-adv-x="745" d="M692 700L590 700L549 404L236 404L277 700L175 700L77 0L179 0L223 319L536 319L492 0L594 0Z"/>
<glyph unicode="&#x49;" horiz-adv-x="330" d="M77 0L179 0L277 700L175 700Z"/>
<glyph unicode="&#x4a;" horiz-adv-x="525" d="M198 -12C330 -12 404 61 422 186L494 700L392 700L321 190C309 108 264 69 199 69C138 69 97 101 96 166L-1 166C-4 63 65 -12 198 -12Z"/>
<glyph unicode="&#x4b;" horiz-adv-x="651" d="M538 103L375 392L660 700L551 700L224 352L272 700L175 700L77 0L174 0L204 215L304 322L446 62C475 9 503 -8 553 -8C572 -8 586 -4 600 1L612 71C605 70 601 70 592 70C568 70 553 75 538 103Z"/>
<glyph unicode="&#x4c;" horiz-adv-x="520" d="M191 85L277 700L175 700L77 0L79 0L472 0L483 85Z"/>
<glyph unicode="&#x4d;" horiz-adv-x="873" d="M690 700L690 699L407 82L306 700L175 700L77 0L170 0L246 541L340 0L458 0L457 1L697 522L624 0L722 0L820 700Z"/>
<glyph unicode="&#x4e;" horiz-adv-x="743" d="M598 700L518 132L299 700L175 700L77 0L169 0L249 573L469 0L592 0L690 700Z"/>
<glyph unicode="&#x4f;" horiz-adv-x="704" d="M330 -12C523 -12 611 110 633 273L655 435C657 451 658 468 658 483C658 630 556 712 399 712C204 712 117 590 95 427L73 266C71 247 70 232 70 216C70 70 172 -12 330 -12ZM332 69C234 69 172 120 172 224C172 238 173 252 175 269L197 429C213 546 276 631 398 631C494 631 557 580 557 476C557 462 556 448 553 431L532 272C515 154 452 69 332 69Z"/>
<glyph unicode="&#x50;" horiz-adv-x="615" d="M377 700L277 700L175 700L77 0L179 0L214 247L324 247C489 247 584 319 600 445L607 495C608 505 609 518 609 528C609 650 506 700 377 700ZM507 504L499 445C489 366 423 329 327 329L225 329L266 621L369 621C451 621 508 591 508 523C508 517 508 513 507 504Z"/>
<glyph unicode="&#x51;" horiz-adv-x="709" d="M633 271C657 443 659 453 659 478C659 614 573 712 401 712C208 712 118 590 95 427C71 253 69 244 69 221C69 87 158 -12 332 -12C376 -12 416 -5 450 8L528 -110L601 -62L527 53C587 105 621 182 633 271ZM481 125L426 211L348 161L404 77C384 72 360 69 334 69C221 69 172 133 172 225C172 250 176 273 197 429C213 547 276 631 400 631C510 631 557 567 557 474C557 447 555 424 532 269C522 204 507 157 481 125Z"/>
<glyph unicode="&#x52;" horiz-adv-x="668" d="M411 700L277 700L175 700L77 0L179 0L219 286L349 286L430 74C454 12 485 -8 536 -8C552 -8 566 -6 583 0L593 76C588 75 584 74 576 74C552 74 536 81 527 103L453 299C545 324 595 382 605 463L613 528C614 540 614 545 614 553C614 651 538 700 411 700ZM508 493L504 467C495 403 435 367 356 367L230 367L266 619L391 619C458 619 511 591 511 528C511 521 511 512 508 493Z"/>
<glyph unicode="&#x53;" horiz-adv-x="642" d="M304 -12C483 -12 548 74 562 162C567 193 569 211 569 224C569 311 513 360 413 392L323 421C245 446 216 470 216 516C216 526 218 538 220 547C226 577 259 631 360 631C472 631 515 575 511 510L609 510C610 632 525 712 367 712C192 712 130 625 118 550C115 531 113 512 113 500C113 424 162 373 252 344L343 314C419 289 465 270 465 212C465 205 464 193 461 171C456 128 422 69 307 69C183 69 136 131 140 199L45 199C41 75 141 -12 304 -12Z"/>
<glyph unicode="&#x54;" horiz-adv-x="543" d="M586 700L79 700L68 619L270 619L184 0L285 0L372 619L575 619Z"/>
<glyph unicode="&#x55;" horiz-adv-x="730" d="M575 700L499 162C460 112 401 68 311 68C219 68 185 107 185 183C185 195 186 208 188 222L255 700L153 700L87 226C84 206 83 187 83 168C83 59 139 -12 280 -12C384 -12 449 30 492 74L488 0L579 0L677 700Z"/>
<glyph unicode="&#x56;" horiz-adv-x="627" d="M212 0L350 0L665 700L558 700L290 87L187 700L83 700Z"/>
<glyph unicode="&#x57;" horiz-adv-x="891" d="M809 700L626 84L576 700L441 700L215 84L206 700L103 700L129 0L276 0L497 609L543 0L689 0L910 700Z"/>
<glyph unicode="&#x58;" horiz-adv-x="627" d="M652 700L542 700L341 442L212 700L97 700L264 374L-26 0L88 0L319 294L464 0L579 0L394 366Z"/>
<glyph unicode="&#x59;" horiz-adv-x="571" d="M624 700L519 700L297 373L174 700L70 700L239 289L198 0L300 0L341 290Z"/>
<glyph unicode="&#x5a;" horiz-adv-x="567" d="M576 700L125 700L114 617L449 617L22 78L12 0L486 0L499 85L139 85L566 623Z"/>
<glyph unicode="&#x5b;" horiz-adv-x="400" d="M20 -200L249 -200L260 -119L131 -119L241 659L370 659L381 740L152 740Z"/>
<glyph unicode="&#x5c;" horiz-adv-x="400" d="M257 -140L353 -140L153 740L57 740Z"/>
<glyph unicode="&#x5d;" horiz-adv-x="400" d="M382 740L153 740L142 659L271 659L161 -119L32 -119L21 -200L250 -200Z"/>
<glyph unicode="&#x5e;" horiz-adv-x="600" d="M409 700L313 700L92 391L197 391L353 622L445 391L545 391Z"/>
<glyph unicode="&#x5f;" horiz-adv-x="600" d="M533 -64L36 -64L24 -146L522 -146Z"/>
<glyph unicode="&#x60;" horiz-adv-x="400" d="M257 759L140 759L295 616L378 616Z"/>
<glyph unicode="&#x61;" horiz-adv-x="594" d="M474 85C474 90 475 100 476 107L531 493C508 505 430 541 323 541C180 541 80 452 54 278C48 237 41 185 41 163C41 50 119 -12 209 -12C269 -12 325 13 373 85C372 84 372 82 372 81C372 29 395 -12 452 -12C472 -12 492 -7 504 0L513 65C507 63 504 63 495 63C479 63 474 70 474 85ZM230 67C185 67 142 98 142 168C142 189 146 222 154 273C174 404 229 467 331 467C374 467 407 457 424 447L396 249C361 132 298 67 230 67Z"/>
<glyph unicode="&#x62;" horiz-adv-x="596" d="M380 541C324 541 269 520 221 458L261 740L161 740L62 36C123 7 189 -12 265 -12C396 -12 511 59 535 234C547 315 547 332 547 362C548 471 477 541 380 541ZM435 239C418 114 353 63 265 63C223 63 192 68 168 81L202 324C240 413 300 463 359 463C411 463 446 424 446 354C446 323 445 311 435 239Z"/>
<glyph unicode="&#x63;" horiz-adv-x="542" d="M248 -12C396 -12 459 76 483 176L390 176C375 112 334 67 257 67C183 67 142 116 145 200C146 222 149 249 157 298C174 403 228 463 308 463C378 463 416 428 416 357L507 357C507 465 439 541 310 541C152 541 80 438 57 296C48 241 46 209 46 190C46 71 120 -12 248 -12Z"/>
<glyph unicode="&#x64;" horiz-adv-x="602" d="M474 740L438 487C406 517 360 541 299 541C203 541 89 470 62 295C53 239 50 212 50 188C49 68 115 -12 219 -12C278 -12 337 13 387 85L389 0L470 0L575 740ZM239 67C185 67 150 109 151 188C151 213 153 238 162 290C182 411 244 463 313 463C363 463 403 444 427 411L400 219C363 122 300 67 239 67Z"/>
<glyph unicode="&#x65;" horiz-adv-x="560" d="M521 355C524 381 526 392 526 403C526 473 459 541 331 541C162 541 75 426 56 292C48 233 45 214 45 194C45 73 117 -12 253 -12C379 -12 471 65 490 166L403 166C387 111 338 67 259 67C189 67 145 108 145 194C145 201 146 208 147 218C312 219 504 236 521 355ZM328 463C388 463 428 444 427 398C427 391 426 384 424 370C415 308 307 288 155 287C155 289 156 291 156 293C169 392 218 463 328 463Z"/>
<glyph unicode="&#x66;" horiz-adv-x="380" d="M357 673C390 673 425 666 449 659L459 736C424 747 381 752 348 752C232 752 177 692 161 583L154 529L79 529L69 453L143 453L79 0L179 0L242 453L375 453L386 529L253 529L262 599C270 647 300 673 357 673Z"/>
<glyph unicode="&#x67;" horiz-adv-x="603" d="M334 541C193 541 88 476 62 296C57 261 51 231 51 190C51 86 123 19 222 19C281 19 339 42 389 114L374 -7C362 -101 305 -133 241 -133C182 -133 130 -109 122 -36L28 -36C30 -148 113 -212 240 -212C374 -212 451 -145 470 -11L541 494C480 522 410 541 334 541ZM242 97C189 97 152 132 152 198C152 237 155 254 161 292C182 415 234 467 334 467C376 467 409 461 435 448L405 252C368 152 304 97 242 97Z"/>
<glyph unicode="&#x68;" horiz-adv-x="604" d="M386 541C327 541 269 518 219 448L261 740L161 740L57 0L157 0L199 302C236 405 301 461 362 461C406 461 435 439 435 385C435 376 435 366 432 347L383 0L483 0L529 330C533 357 534 372 534 387C534 493 472 541 386 541Z"/>
<glyph unicode="&#x69;" horiz-adv-x="308" d="M219 755C181 755 151 725 151 687C151 653 174 630 208 630C246 630 277 661 277 699C277 733 253 755 219 755ZM68 529L58 453L140 453L77 0L177 0L251 529Z"/>
<glyph unicode="&#x6a;" horiz-adv-x="284" d="M193 630C231 630 262 661 262 699C262 733 238 755 204 755C166 755 136 725 136 687C136 653 159 630 193 630ZM125 529L41 -76C34 -116 19 -136 -27 -136C-41 -136 -57 -135 -75 -132L-84 -203C-62 -209 -31 -212 -6 -212C79 -212 129 -170 140 -91L225 529Z"/>
<glyph unicode="&#x6b;" horiz-adv-x="552" d="M450 98L329 326L546 529L423 529L202 320L261 740L161 740L57 0L157 0L184 192L251 257L352 65C384 5 411 -8 456 -8C474 -8 489 -5 500 0L510 66C506 65 505 65 502 65C476 65 465 70 450 98Z"/>
<glyph unicode="&#x6c;" horiz-adv-x="315" d="M158 -12C195 -12 223 -6 244 0L254 75C231 71 210 69 197 69C171 69 162 78 162 97C162 103 162 108 163 114L251 740L151 740L61 98C60 88 59 79 59 70C59 17 92 -12 158 -12Z"/>
<glyph unicode="&#x6d;" horiz-adv-x="877" d="M679 541C612 541 551 504 505 428C501 450 494 468 486 483C465 522 428 541 379 541C314 541 254 506 209 433L216 529L131 529L57 0L157 0L198 303C231 394 296 461 354 461C388 461 408 441 408 390C408 379 407 363 406 354L356 0L456 0L500 309C533 397 596 461 653 461C688 461 707 441 707 392C707 382 706 365 705 356L656 0L756 0L805 356C807 371 808 387 808 401C808 486 767 541 679 541Z"/>
<glyph unicode="&#x6e;" horiz-adv-x="604" d="M386 541C323 541 260 515 209 432L216 529L131 529L57 0L157 0L198 300C235 405 301 463 364 463C406 463 435 439 435 385C435 376 434 367 433 357L383 0L483 0L531 340C533 357 534 372 534 387C534 493 472 541 386 541Z"/>
<glyph unicode="&#x6f;" horiz-adv-x="590" d="M323 541C158 541 76 435 56 293C48 234 45 214 45 191C45 72 115 -12 265 -12C431 -12 514 93 534 238C542 296 545 315 545 339C545 458 474 541 323 541ZM319 463C402 463 445 416 445 335C445 320 443 300 434 239C419 130 360 67 270 67C187 67 145 115 145 197C145 214 147 233 156 295C171 401 229 463 319 463Z"/>
<glyph unicode="&#x70;" horiz-adv-x="596" d="M379 541C319 541 259 516 210 443L216 530L131 530L29 -200L129 -200L162 40C194 11 239 -12 298 -12C386 -12 511 59 536 234C545 307 547 322 547 353C547 467 479 541 379 541ZM436 239C418 119 353 67 284 67C236 67 197 84 173 115L201 321C239 411 299 463 358 463C410 463 447 424 447 350C447 319 445 312 436 239Z"/>
<glyph unicode="&#x71;" horiz-adv-x="595" d="M326 541C194 541 83 469 57 295C47 229 45 207 45 176C45 62 113 -12 212 -12C270 -12 326 11 374 76L336 -200L436 -200L533 494C472 522 404 541 326 541ZM233 67C180 67 146 108 146 187C146 212 148 233 157 290C175 410 236 467 327 467C370 467 401 461 425 448L393 214C355 119 294 67 233 67Z"/>
<glyph unicode="&#x72;" horiz-adv-x="426" d="M397 539C333 539 271 507 224 413L227 529L68 529L58 453L140 453L77 0L177 0L220 314C263 409 320 438 389 438C401 438 417 436 430 433L443 534C428 538 413 539 397 539Z"/>
<glyph unicode="&#x73;" horiz-adv-x="532" d="M247 -12C367 -12 435 31 452 125C456 149 458 167 458 174C457 240 412 271 343 293L268 317C202 339 180 353 180 386C180 394 180 399 182 408C188 440 226 465 285 465C351 465 397 444 393 370L484 370C489 486 422 541 291 541C163 541 102 485 87 411C84 397 82 385 82 371C82 316 114 274 194 249L271 225C345 202 361 183 358 146L355 128C349 87 310 67 246 67C163 67 126 107 129 176L37 176C32 53 110 -12 247 -12Z"/>
<glyph unicode="&#x74;" horiz-adv-x="397" d="M250 453L369 453L379 529L261 529L279 659L190 659L163 529L77 529L66 453L150 453L103 126C101 111 101 101 101 91C101 21 142 -12 225 -12C261 -12 299 -7 320 0L331 75C307 70 284 67 260 67C221 67 203 81 203 112C203 117 203 122 204 132Z"/>
<glyph unicode="&#x75;" horiz-adv-x="582" d="M545 529L445 529L396 181C386 117 350 68 265 68C189 68 160 106 160 157C160 164 161 173 162 182L211 529L111 529L62 178C60 166 60 156 60 146C60 55 122 -12 261 -12C417 -12 481 71 496 177Z"/>
<glyph unicode="&#x76;" horiz-adv-x="546" d="M550 529L449 529L244 76L169 529L70 529L164 0L308 0Z"/>
<glyph unicode="&#x77;" horiz-adv-x="795" d="M692 529L539 83L498 529L375 529L209 83L178 529L81 529L126 0L257 0L426 442L463 0L600 0L788 529Z"/>
<glyph unicode="&#x78;" horiz-adv-x="531" d="M532 529L425 529L273 331L178 529L72 529L208 269L-9 0L99 0L255 196L358 0L466 0L320 262Z"/>
<glyph unicode="&#x79;" horiz-adv-x="539" d="M95 -212C172 -212 222 -182 271 -74L543 529L446 529L242 75L168 529L70 529L168 0L213 0L185 -65C161 -118 129 -138 88 -138C65 -138 41 -136 20 -132L9 -203C25 -207 61 -212 95 -212Z"/>
<glyph unicode="&#x7a;" horiz-adv-x="461" d="M454 529L90 529L79 448L333 448L12 75L2 0L387 0L399 82L123 82L444 455Z"/>
<glyph unicode="&#x7b;" horiz-adv-x="400" d="M274 -212L285 -133C235 -129 202 -106 202 -61C202 -57 202 -52 203 -47L230 148C231 156 232 164 232 171C232 230 192 263 120 268C195 274 253 308 265 393L292 587C300 642 343 670 399 674L410 753C282 756 206 700 191 593L164 396C157 346 128 312 51 312L39 230C107 230 130 205 130 165C130 159 129 153 128 146L101 -52C99 -62 99 -72 99 -81C99 -168 164 -212 274 -212Z"/>
<glyph unicode="&#x7c;" horiz-adv-x="400" d="M102 -80L202 -80L317 740L217 740Z"/>
<glyph unicode="&#x7d;" horiz-adv-x="400" d="M128 752L117 673C167 669 201 646 201 601C201 597 200 592 199 587L172 392C171 384 170 376 170 369C170 310 210 277 282 272C207 266 149 232 137 147L110 -47C102 -102 60 -130 4 -134L-8 -213C120 -216 196 -160 211 -53L238 144C245 194 274 228 352 228L363 310C295 310 272 335 272 375C272 381 273 387 274 394L301 592C303 602 304 612 304 621C304 708 238 752 128 752Z"/>
<glyph unicode="&#x7e;" horiz-adv-x="599" d="M399 272C470 272 517 324 533 391L466 391C449 359 426 340 395 340C341 340 311 402 227 402C156 402 100 351 87 283L153 283C171 316 191 334 225 334C280 334 311 272 399 272Z"/>
<glyph unicode="&#xa0;" horiz-adv-x="265" />
<glyph unicode="&#xa1;" horiz-adv-x="302" d="M183 510C137 510 110 479 110 436C110 401 135 372 176 372C220 372 249 405 249 448C249 480 225 510 183 510ZM142 -200L208 272L108 272L42 -200Z"/>
<glyph unicode="&#xa2;" horiz-adv-x="600" d="M277 67C203 67 162 116 165 200C166 222 169 249 177 298C194 403 248 463 328 463C398 463 436 428 436 357L527 357C527 451 476 521 377 537L392 639L307 639L292 539C160 523 98 425 77 296C68 241 66 209 66 190C66 88 120 13 216 -7L201 -110L286 -110L301 -10C425 2 481 84 503 176L410 176C395 112 354 67 277 67Z"/>
<glyph unicode="&#xa3;" horiz-adv-x="600" d="M571 510L571 526C569 640 492 712 361 712C196 712 138 606 123 527C119 506 117 486 116 461C116 435 123 404 129 370L84 370L76 316L136 316C136 310 137 304 137 298C136 217 103 147 42 84L31 0L485 0L497 84L142 84C198 151 237 228 237 309L237 316L475 316L482 370L231 370C226 402 218 431 218 464C218 489 220 502 223 520C230 559 261 631 360 631C435 631 475 591 477 526L477 510Z"/>
<glyph unicode="&#xa4;" horiz-adv-x="656" d="M553 341C553 387 538 430 512 465L587 540L535 592L457 515C424 535 383 547 337 547C293 547 253 534 220 513L144 592L91 540L166 462C141 428 127 386 127 341C127 295 142 252 167 218L91 143L144 91L220 168C253 147 293 134 337 134C383 134 424 146 457 166L535 91L587 143L512 216C538 251 553 294 553 341ZM340 211C268 211 216 260 216 342C216 423 268 473 340 473C412 473 462 423 462 342C462 260 412 211 340 211Z"/>
<glyph unicode="&#xa5;" horiz-adv-x="571" d="M611 700L507 700L300 371L184 700L83 700L226 329L96 329L88 276L240 276L229 199L78 199L70 146L222 146L201 0L297 0L318 146L469 146L476 199L325 199L336 276L487 276L494 329L364 329Z"/>
<glyph unicode="&#xa6;" horiz-adv-x="400" d="M172 420L272 420L317 740L217 740ZM102 -80L202 -80L246 240L146 240Z"/>
<glyph unicode="&#xa7;" horiz-adv-x="646" d="M541 340L541 368C541 445 488 479 409 504L331 528C260 550 230 567 230 602L230 617C230 650 264 676 326 676C400 676 440 653 446 581L536 581C532 684 466 752 326 752C214 752 134 696 134 616L134 588C134 543 165 505 218 479C145 447 121 409 121 360L121 332C121 255 174 221 253 196L331 172C401 151 429 133 429 98L429 83C429 50 395 24 332 24C258 24 219 47 213 119L122 119C126 16 193 -52 332 -52C445 -52 524 4 524 84L524 112C524 157 496 195 443 221C516 253 541 291 541 340ZM444 342C444 313 428 288 352 253L315 264C238 288 218 307 218 343L218 358C218 387 234 413 309 447L347 436C423 412 444 393 444 358Z"/>
<glyph unicode="&#xa8;" horiz-adv-x="400" d="M150 745C114 745 89 718 89 686C89 660 106 634 141 634C177 634 202 661 202 693C202 719 185 745 150 745ZM377 745C341 745 317 718 317 686C317 660 334 634 369 634C405 634 430 661 430 693C430 719 412 745 377 745Z"/>
<glyph unicode="&#xa9;" horiz-adv-x="931" d="M476 -12C694 -12 842 118 842 308L842 403C842 574 694 712 479 712C276 712 115 574 115 403L115 308C115 118 275 -12 476 -12ZM478 49C314 49 184 150 184 307L184 404C184 542 314 651 478 651C656 651 772 542 772 404L772 307C772 150 656 49 478 49ZM476 133C574 133 617 192 623 272L552 272C549 236 534 197 474 197C424 197 397 229 397 286L397 414C397 471 424 504 473 504C532 504 547 465 550 428L621 428C619 505 573 567 473 567C374 567 320 503 320 412L320 288C320 197 377 133 476 133Z"/>
<glyph unicode="&#xaa;" horiz-adv-x="458" d="M428 358C413 358 407 362 408 373C408 385 411 401 414 425L434 563C436 578 436 587 436 594C436 661 387 712 276 712C154 712 105 649 93 580L181 580C188 620 215 648 272 648C325 648 344 623 344 595C344 587 344 584 342 572L337 541L246 541C126 541 62 499 53 433C50 412 49 401 49 388C49 328 90 292 173 292C229 292 274 306 316 341C324 312 346 293 385 293C402 293 420 296 433 301L441 359C433 358 432 358 428 358ZM144 402C144 410 145 417 146 427C151 466 189 486 250 486L330 486L319 409C288 375 247 358 206 358C166 358 144 375 144 402Z"/>
<glyph unicode="&#xab;" horiz-adv-x="618" d="M213 60L286 60L180 284L348 511L275 511L94 312L87 263ZM430 60L503 60L397 284L564 511L492 511L311 312L304 263Z"/>
<glyph unicode="&#xac;" horiz-adv-x="600" d="M128 383L117 302L412 302L391 154L473 154L505 383Z"/>
<glyph unicode="&#xad;" horiz-adv-x="431" d="M381 383L83 383L72 302L370 302Z"/>
<glyph unicode="&#xae;" horiz-adv-x="931" d="M479 712C276 712 115 574 115 403L115 308C115 118 275 -12 476 -12C694 -12 842 118 842 308L842 403C842 574 694 712 479 712ZM772 307C772 150 656 49 478 49C314 49 184 150 184 307L184 404C184 542 314 651 478 651C656 651 772 542 772 404ZM614 211L557 313C602 331 629 366 629 417L629 447C629 515 572 560 482 560L428 560L352 560L352 140L428 140L428 299L473 299L483 299L548 180C565 148 589 136 620 135C635 134 648 137 656 140L656 194L650 194C632 194 621 198 614 211ZM428 361L428 498L479 498C520 498 554 485 554 444L554 420C554 379 518 361 470 361Z"/>
<glyph unicode="&#xaf;" horiz-adv-x="400" d="M386 638L395 703L127 703L118 638Z"/>
<glyph unicode="&#xb0;" horiz-adv-x="526" d="M243 387C355 387 419 464 419 577C419 665 358 712 277 712C168 712 100 632 100 523C100 433 166 387 243 387ZM250 456C203 456 180 485 180 529C180 588 209 643 272 643C318 643 339 614 339 570C339 509 311 456 250 456Z"/>
<glyph unicode="&#xb1;" horiz-adv-x="600" d="M360 383L381 531L294 531L273 383L128 383L117 302L262 302L241 154L328 154L349 302L494 302L505 383ZM74 0L452 0L463 81L86 81Z"/>
<glyph unicode="&#xb2;" horiz-adv-x="500" d="M510 790C513 809 514 819 514 830C514 891 464 951 343 951C231 951 156 897 138 797L226 797C235 847 277 880 338 880C405 880 420 841 416 810C415 804 415 798 414 791C409 755 383 720 322 669L99 483L90 415L458 415L468 491L218 491L398 638C473 699 502 736 510 790Z"/>
<glyph unicode="&#xb3;" horiz-adv-x="500" d="M282 404C419 404 481 464 493 544C497 573 498 583 498 593C498 657 441 691 395 698C447 707 498 745 506 793C509 818 510 827 510 837C510 906 441 951 346 951C214 951 145 882 129 804L219 804C230 845 269 880 335 880C384 880 415 862 415 824C415 817 414 811 411 793C402 743 353 727 306 727L255 727L247 659L297 659C341 659 403 645 403 586C403 581 402 575 399 553C391 503 350 475 287 475C213 475 179 512 177 552L87 552C88 475 154 404 282 404Z"/>
<glyph unicode="&#xb4;" horiz-adv-x="396" d="M281 759L119 616L205 616L395 759Z"/>
<glyph unicode="&#xb5;" horiz-adv-x="612" d="M455 529L409 202C372 108 316 68 251 68C207 68 177 92 177 132C177 136 177 143 178 151L231 529L131 529L29 -200L129 -200L158 10C178 -4 203 -12 234 -12C296 -12 355 29 398 90L396 0L481 0L555 529Z"/>
<glyph unicode="&#xb6;" horiz-adv-x="731" d="M398 699C236 700 125 625 125 473C125 370 188 302 320 296L251 -200L329 -200L446 630L562 630L445 -200L523 -200L649 700Z"/>
<glyph unicode="&#xb7;" horiz-adv-x="272" d="M141 263C188 263 215 294 215 338C215 373 189 401 149 401C104 401 76 368 76 325C76 293 99 263 141 263Z"/>
<glyph unicode="&#xb8;" horiz-adv-x="401" d="M129 -239C195 -239 237 -213 246 -157C248 -144 249 -139 249 -132C249 -92 216 -65 167 -57L177 15L113 15L96 -104C161 -104 178 -119 175 -142C175 -144 174 -147 174 -151C170 -177 146 -182 119 -182C99 -182 75 -179 50 -173L43 -227C62 -235 99 -239 129 -239Z"/>
<glyph unicode="&#xb9;" horiz-adv-x="500" d="M332 486L396 940L365 940L217 940L207 871L292 871L238 486L153 486L143 415L228 415L401 415L410 486Z"/>
<glyph unicode="&#xba;" horiz-adv-x="456" d="M240 289C385 289 429 364 448 482C455 523 457 539 457 555C457 649 401 710 285 710C143 710 91 632 75 519C69 478 66 460 66 441C66 348 125 289 240 289ZM244 359C185 359 160 388 160 444C160 457 162 474 169 521C180 601 215 642 278 642C337 642 362 613 362 558C362 545 360 529 353 482C342 400 310 359 244 359Z"/>
<glyph unicode="&#xbb;" horiz-adv-x="618" d="M194 511L121 511L227 287L60 61L132 61L313 260L320 308ZM411 511L338 511L444 287L276 61L349 61L530 260L537 308Z"/>
<glyph unicode="&#xbc;" horiz-adv-x="1218" d="M304 286L368 740L337 740L189 740L179 671L264 671L210 286L125 286L115 215L200 215L373 215L382 286ZM783 740L375 0L466 0L875 740ZM1098 176L1118 317L1027 317L1008 176L851 176L1086 525L988 525L742 161L734 102L994 102L979 0L1074 0L1088 102L1157 102L1167 176Z"/>
<glyph unicode="&#xbd;" horiz-adv-x="1218" d="M304 286L368 740L337 740L189 740L179 671L264 671L210 286L125 286L115 215L200 215L373 215L382 286ZM783 740L375 0L466 0L875 740ZM1169 375C1172 394 1173 404 1173 415C1173 476 1123 536 1002 536C890 536 815 482 797 382L885 382C894 432 936 465 997 465C1064 465 1079 426 1075 395C1074 389 1074 383 1073 376C1068 340 1042 305 981 254L758 68L749 0L1117 0L1127 76L877 76L1057 223C1132 284 1161 321 1169 375Z"/>
<glyph unicode="&#xbe;" horiz-adv-x="1217" d="M254 204C391 204 453 264 465 344C469 373 470 383 470 393C470 457 413 491 367 498C419 507 470 545 478 593C481 618 482 627 482 637C482 706 413 751 318 751C186 751 117 682 101 604L191 604C202 645 241 680 307 680C356 680 387 662 387 624C387 617 386 611 383 593C374 543 325 527 278 527L227 527L219 459L269 459C313 459 375 445 375 386C375 381 374 375 371 353C363 303 322 275 259 275C185 275 151 312 149 352L59 352C60 275 126 204 254 204ZM465 0L874 740L782 740L374 0ZM978 0L1073 0L1087 102L1156 102L1166 176L1097 176L1117 317L1026 317L1007 176L850 176L1085 525L987 525L741 161L733 102L993 102Z"/>
<glyph unicode="&#xbf;" horiz-adv-x="483" d="M259 510C212 510 185 479 185 436C185 401 210 372 251 372C296 372 324 405 324 448C324 480 300 510 259 510ZM163 -212C311 -212 384 -129 404 -21L308 -21C294 -83 249 -131 167 -131C105 -131 70 -103 70 -55C70 -49 71 -39 75 -14C89 78 266 85 287 242L292 272L194 272L190 245C172 130 -7 119 -27 -20C-30 -44 -32 -57 -32 -70C-32 -148 31 -212 163 -212Z"/>
<glyph unicode="&#xc0;" horiz-adv-x="635" d="M432 746L309 889L192 889L348 746ZM471 0L576 0L443 700L303 700L-15 0L92 0L180 200L435 200ZM367 627L421 284L217 284Z"/>
<glyph unicode="&#xc1;" horiz-adv-x="635" d="M613 889L496 889L335 746L419 746ZM303 700L-15 0L92 0L180 200L435 200L471 0L576 0L443 700ZM367 627L421 284L217 284Z"/>
<glyph unicode="&#xc2;" horiz-adv-x="635" d="M404 823L464 745L566 745L450 879L375 879L220 745L321 745ZM471 0L576 0L443 700L303 700L-15 0L92 0L180 200L435 200ZM367 627L421 284L217 284Z"/>
<glyph unicode="&#xc3;" horiz-adv-x="635" d="M320 801C355 801 390 760 452 760C497 760 546 786 563 858L494 858C489 842 478 826 453 826C418 826 383 868 321 868C277 868 228 842 211 770L279 770C284 786 297 801 320 801ZM471 0L576 0L443 700L303 700L-15 0L92 0L180 200L435 200ZM367 627L421 284L217 284Z"/>
<glyph unicode="&#xc4;" horiz-adv-x="635" d="M272 769C308 769 332 796 332 828C332 854 315 880 280 880C244 880 219 853 219 821C219 795 237 769 272 769ZM499 769C535 769 560 796 560 828C560 854 543 880 508 880C472 880 447 853 447 821C447 795 464 769 499 769ZM471 0L576 0L443 700L303 700L-15 0L92 0L180 200L435 200ZM367 627L421 284L217 284Z"/>
<glyph unicode="&#xc5;" horiz-adv-x="635" d="M381 724C454 724 496 768 504 826C505 836 507 848 507 855C507 906 466 946 395 946C323 946 278 900 270 842C269 834 268 822 268 813C268 762 310 724 381 724ZM334 841C338 873 363 892 392 892C427 892 445 873 442 842C442 840 441 832 440 827C435 795 411 778 382 778C350 778 331 792 331 818C331 825 332 831 334 841ZM471 0L576 0L443 700L303 700L-15 0L92 0L180 200L435 200ZM367 627L421 284L217 284Z"/>
<glyph unicode="&#xc6;" horiz-adv-x="969" d="M927 621L939 700L491 700L352 700L-15 0L88 0L188 200L451 200L473 0L514 0L873 0L884 82L564 82L536 317L850 317L862 396L527 396L500 621ZM404 623L442 284L231 284Z"/>
<glyph unicode="&#xc7;" horiz-adv-x="625" d="M608 500C609 507 609 515 609 521C609 623 528 712 378 712C211 712 122 605 100 454L71 258C67 232 67 218 67 204C67 93 133 12 248 -7L234 -104C299 -104 315 -119 312 -142C312 -144 312 -147 311 -151C307 -177 283 -182 256 -182C236 -182 213 -179 187 -173L180 -227C199 -235 237 -239 266 -239C333 -239 375 -213 383 -157C385 -144 387 -139 387 -132C387 -92 354 -65 304 -57L310 -12C479 -10 542 84 569 200L471 200C454 122 406 69 310 69C214 69 168 125 168 208C168 221 169 236 172 256L199 447C215 559 271 631 379 631C471 631 520 563 511 500Z"/>
<glyph unicode="&#xc8;" horiz-adv-x="584" d="M431 746L308 889L191 889L347 746ZM559 621L570 700L277 700L175 700L77 0L79 0L472 0L484 79L190 79L223 317L495 317L506 396L234 396L266 621Z"/>
<glyph unicode="&#xc9;" horiz-adv-x="584" d="M611 889L494 889L333 746L417 746ZM570 700L175 700L77 0L79 0L472 0L484 79L190 79L223 317L495 317L506 396L234 396L266 621L559 621Z"/>
<glyph unicode="&#xca;" horiz-adv-x="584" d="M402 823L462 745L564 745L448 879L373 879L218 745L319 745ZM559 621L570 700L277 700L175 700L77 0L79 0L472 0L484 79L190 79L223 317L495 317L506 396L234 396L266 621Z"/>
<glyph unicode="&#xcb;" horiz-adv-x="584" d="M270 769C306 769 330 796 330 828C330 854 313 880 278 880C242 880 217 853 217 821C217 795 235 769 270 769ZM497 769C533 769 558 796 558 828C558 854 541 880 506 880C470 880 445 853 445 821C445 795 462 769 497 769ZM559 621L570 700L277 700L175 700L77 0L79 0L472 0L484 79L190 79L223 317L495 317L506 396L234 396L266 621Z"/>
<glyph unicode="&#xcc;" horiz-adv-x="330" d="M159 889L42 889L198 746L282 746ZM77 0L179 0L277 700L175 700Z"/>
<glyph unicode="&#xcd;" horiz-adv-x="330" d="M345 889L184 746L268 746L462 889ZM77 0L179 0L277 700L175 700Z"/>
<glyph unicode="&#xce;" horiz-adv-x="330" d="M69 745L170 745L253 823L313 745L414 745L299 879L224 879ZM77 0L179 0L277 700L175 700Z"/>
<glyph unicode="&#xcf;" horiz-adv-x="330" d="M129 880C93 880 68 853 68 821C68 795 86 769 121 769C157 769 181 796 181 828C181 854 164 880 129 880ZM357 880C321 880 296 853 296 821C296 795 313 769 348 769C384 769 409 796 409 828C409 854 392 880 357 880ZM77 0L179 0L277 700L175 700Z"/>
<glyph unicode="&#xd0;" horiz-adv-x="684" d="M398 700L277 700L175 700L130 381L86 381L78 316L121 316L77 0L140 0L289 0C525 0 590 106 617 298C634 417 638 453 638 483C639 612 565 700 398 700ZM537 477C536 453 532 423 515 296C494 154 449 81 304 81L190 81L223 316L378 316L387 381L232 381L266 619L381 619C500 619 537 562 537 477Z"/>
<glyph unicode="&#xd1;" horiz-adv-x="743" d="M377 801C412 801 447 760 509 760C554 760 603 786 620 858L551 858C546 842 535 826 510 826C475 826 440 868 378 868C334 868 285 842 268 770L336 770C341 786 354 801 377 801ZM598 700L518 132L299 700L175 700L77 0L169 0L249 573L469 0L592 0L690 700Z"/>
<glyph unicode="&#xd2;" horiz-adv-x="704" d="M343 889L226 889L382 746L466 746ZM330 -12C523 -12 611 110 633 273L655 435C657 451 658 468 658 483C658 630 556 712 399 712C204 712 117 590 95 427L73 266C71 247 70 232 70 216C70 70 172 -12 330 -12ZM332 69C234 69 172 120 172 224C172 238 173 252 175 269L197 429C213 546 276 631 398 631C494 631 557 580 557 476C557 462 556 448 553 431L532 272C515 154 452 69 332 69Z"/>
<glyph unicode="&#xd3;" horiz-adv-x="704" d="M529 889L368 746L452 746L646 889ZM330 -12C523 -12 611 110 633 273L655 435C657 451 658 468 658 483C658 630 556 712 399 712C204 712 117 590 95 427L73 266C71 247 70 232 70 216C70 70 172 -12 330 -12ZM332 69C234 69 172 120 172 224C172 238 173 252 175 269L197 429C213 546 276 631 398 631C494 631 557 580 557 476C557 462 556 448 553 431L532 272C515 154 452 69 332 69Z"/>
<glyph unicode="&#xd4;" horiz-adv-x="704" d="M253 745L354 745L437 823L497 745L599 745L483 879L408 879ZM330 -12C523 -12 611 110 633 273L655 435C657 451 658 468 658 483C658 630 556 712 399 712C204 712 117 590 95 427L73 266C71 247 70 232 70 216C70 70 172 -12 330 -12ZM332 69C234 69 172 120 172 224C172 238 173 252 175 269L197 429C213 546 276 631 398 631C494 631 557 580 557 476C557 462 556 448 553 431L532 272C515 154 452 69 332 69Z"/>
<glyph unicode="&#xd5;" horiz-adv-x="704" d="M486 760C531 760 580 786 597 858L528 858C523 842 512 826 487 826C452 826 417 868 355 868C311 868 262 842 245 770L313 770C318 786 331 801 354 801C389 801 424 760 486 760ZM330 -12C523 -12 611 110 633 273L655 435C657 451 658 468 658 483C658 630 556 712 399 712C204 712 117 590 95 427L73 266C71 247 70 232 70 216C70 70 172 -12 330 -12ZM332 69C234 69 172 120 172 224C172 238 173 252 175 269L197 429C213 546 276 631 398 631C494 631 557 580 557 476C557 462 556 448 553 431L532 272C515 154 452 69 332 69Z"/>
<glyph unicode="&#xd6;" horiz-adv-x="704" d="M314 880C278 880 253 853 253 821C253 795 271 769 306 769C342 769 366 796 366 828C366 854 349 880 314 880ZM542 880C506 880 481 853 481 821C481 795 498 769 533 769C569 769 594 796 594 828C594 854 577 880 542 880ZM330 -12C523 -12 611 110 633 273L655 435C657 451 658 468 658 483C658 630 556 712 399 712C204 712 117 590 95 427L73 266C71 247 70 232 70 216C70 70 172 -12 330 -12ZM332 69C234 69 172 120 172 224C172 238 173 252 175 269L197 429C213 546 276 631 398 631C494 631 557 580 557 476C557 462 556 448 553 431L532 272C515 154 452 69 332 69Z"/>
<glyph unicode="&#xd7;" horiz-adv-x="632" d="M500 458L443 514L327 399L212 514L155 458L270 342L155 226L212 170L327 285L443 170L500 226L384 342Z"/>
<glyph unicode="&#xd8;" horiz-adv-x="704" d="M686 740L593 740L550 678C509 701 458 712 399 712C204 712 117 590 95 427L73 266C71 247 70 232 70 216C70 153 89 102 123 64L51 -40L143 -40L184 18C224 -2 274 -12 330 -12C523 -12 611 110 633 273L655 435C657 451 658 468 658 483C658 544 641 593 609 631ZM175 269L197 429C213 546 276 631 398 631C442 631 478 620 505 600L189 143C178 165 172 192 172 224C172 238 173 252 175 269ZM553 431L532 272C515 154 452 69 332 69C291 69 256 78 229 96L543 551C552 530 557 505 557 476C557 462 556 448 553 431Z"/>
<glyph unicode="&#xd9;" horiz-adv-x="730" d="M461 746L338 889L221 889L377 746ZM575 700L499 162C460 112 401 68 311 68C219 68 185 107 185 183C185 195 186 208 188 222L255 700L153 700L87 226C84 206 83 187 83 168C83 59 139 -12 280 -12C384 -12 449 30 492 74L488 0L579 0L677 700Z"/>
<glyph unicode="&#xda;" horiz-adv-x="730" d="M642 889L525 889L364 746L448 746ZM575 700L499 162C460 112 401 68 311 68C219 68 185 107 185 183C185 195 186 208 188 222L255 700L153 700L87 226C84 206 83 187 83 168C83 59 139 -12 280 -12C384 -12 449 30 492 74L488 0L579 0L677 700Z"/>
<glyph unicode="&#xdb;" horiz-adv-x="730" d="M432 823L492 745L594 745L478 879L403 879L248 745L349 745ZM575 700L499 162C460 112 401 68 311 68C219 68 185 107 185 183C185 195 186 208 188 222L255 700L153 700L87 226C84 206 83 187 83 168C83 59 139 -12 280 -12C384 -12 449 30 492 74L488 0L579 0L677 700Z"/>
<glyph unicode="&#xdc;" horiz-adv-x="730" d="M301 769C337 769 361 796 361 828C361 854 344 880 309 880C273 880 248 853 248 821C248 795 266 769 301 769ZM528 769C564 769 589 796 589 828C589 854 572 880 537 880C501 880 476 853 476 821C476 795 493 769 528 769ZM575 700L499 162C460 112 401 68 311 68C219 68 185 107 185 183C185 195 186 208 188 222L255 700L153 700L87 226C84 206 83 187 83 168C83 59 139 -12 280 -12C384 -12 449 30 492 74L488 0L579 0L677 700Z"/>
<glyph unicode="&#xdd;" horiz-adv-x="571" d="M581 889L464 889L303 746L387 746ZM624 700L519 700L297 373L174 700L70 700L239 289L198 0L300 0L341 290Z"/>
<glyph unicode="&#xde;" horiz-adv-x="627" d="M361 574L259 574L277 700L175 700L77 0L179 0L196 122L308 122C472 122 568 194 584 319L591 368C592 379 593 393 593 402C593 524 489 574 361 574ZM491 378L483 319C472 240 406 203 311 203L207 203L248 496L353 496C435 496 492 465 492 397C492 391 492 387 491 378Z"/>
<glyph unicode="&#xdf;" horiz-adv-x="629" d="M359 -12C488 -12 556 48 571 156C577 197 578 206 578 217C578 289 531 313 467 347C415 374 407 380 410 400L411 409C417 448 540 468 553 567C557 591 558 599 558 608C558 695 474 752 361 752C215 752 141 667 123 541L47 0L147 0L224 549C237 638 291 674 361 674C425 674 463 644 463 597C463 590 462 584 459 568C449 506 332 498 320 416C318 394 316 383 316 371C316 341 332 321 401 285C460 254 478 236 478 203C478 197 477 189 473 157C464 97 422 67 355 67C320 67 301 72 280 76L269 -3C289 -7 320 -12 359 -12Z"/>
<glyph unicode="&#xe0;" horiz-adv-x="594" d="M419 616L297 759L180 759L335 616ZM474 85C474 90 475 100 476 107L531 493C508 505 430 541 323 541C180 541 80 452 54 278C48 237 41 185 41 163C41 50 119 -12 209 -12C269 -12 325 13 373 85C372 84 372 82 372 81C372 29 395 -12 452 -12C472 -12 492 -7 504 0L513 65C507 63 504 63 495 63C479 63 474 70 474 85ZM230 67C185 67 142 98 142 168C142 189 146 222 154 273C174 404 229 467 331 467C374 467 407 457 424 447L396 249C361 132 298 67 230 67Z"/>
<glyph unicode="&#xe1;" horiz-adv-x="594" d="M557 759L443 759L281 616L367 616ZM531 493C508 505 430 541 323 541C180 541 80 452 54 278C48 237 41 185 41 163C41 50 119 -12 209 -12C269 -12 325 13 373 85C372 84 372 82 372 81C372 29 395 -12 452 -12C472 -12 492 -7 504 0L513 65C507 63 504 63 495 63C479 63 474 70 474 85C474 90 475 100 476 107ZM230 67C185 67 142 98 142 168C142 189 146 222 154 273C174 404 229 467 331 467C374 467 407 457 424 447L396 249C361 132 298 67 230 67Z"/>
<glyph unicode="&#xe2;" horiz-adv-x="594" d="M368 699L426 620L527 620L412 759L337 759L182 620L283 620ZM474 85C474 90 475 100 476 107L531 493C508 505 430 541 323 541C180 541 80 452 54 278C48 237 41 185 41 163C41 50 119 -12 209 -12C269 -12 325 13 373 85C372 84 372 82 372 81C372 29 395 -12 452 -12C472 -12 492 -7 504 0L513 65C507 63 504 63 495 63C479 63 474 70 474 85ZM230 67C185 67 142 98 142 168C142 189 146 222 154 273C174 404 229 467 331 467C374 467 407 457 424 447L396 249C361 132 298 67 230 67Z"/>
<glyph unicode="&#xe3;" horiz-adv-x="594" d="M287 675C322 675 357 634 419 634C464 634 513 660 530 732L461 732C456 716 445 700 420 700C385 700 350 742 288 742C244 742 195 716 178 644L246 644C251 660 264 675 287 675ZM474 85C474 90 475 100 476 107L531 493C508 505 430 541 323 541C180 541 80 452 54 278C48 237 41 185 41 163C41 50 119 -12 209 -12C269 -12 325 13 373 85C372 84 372 82 372 81C372 29 395 -12 452 -12C472 -12 492 -7 504 0L513 65C507 63 504 63 495 63C479 63 474 70 474 85ZM230 67C185 67 142 98 142 168C142 189 146 222 154 273C174 404 229 467 331 467C374 467 407 457 424 447L396 249C361 132 298 67 230 67Z"/>
<glyph unicode="&#xe4;" horiz-adv-x="594" d="M236 634C272 634 296 661 296 693C296 719 279 745 244 745C208 745 183 718 183 686C183 660 201 634 236 634ZM463 634C499 634 524 661 524 693C524 719 507 745 472 745C436 745 411 718 411 686C411 660 428 634 463 634ZM474 85C474 90 475 100 476 107L531 493C508 505 430 541 323 541C180 541 80 452 54 278C48 237 41 185 41 163C41 50 119 -12 209 -12C269 -12 325 13 373 85C372 84 372 82 372 81C372 29 395 -12 452 -12C472 -12 492 -7 504 0L513 65C507 63 504 63 495 63C479 63 474 70 474 85ZM230 67C185 67 142 98 142 168C142 189 146 222 154 273C174 404 229 467 331 467C374 467 407 457 424 447L396 249C361 132 298 67 230 67Z"/>
<glyph unicode="&#xe5;" horiz-adv-x="594" d="M351 601C424 601 466 645 474 703C475 713 477 725 477 732C477 783 436 823 365 823C293 823 248 777 240 719C239 711 238 699 238 690C238 639 280 601 351 601ZM304 718C308 750 333 769 362 769C397 769 415 750 412 719C412 717 411 709 410 704C405 672 381 655 352 655C320 655 301 669 301 695C301 702 302 708 304 718ZM474 85C474 90 475 100 476 107L531 493C508 505 430 541 323 541C180 541 80 452 54 278C48 237 41 185 41 163C41 50 119 -12 209 -12C269 -12 325 13 373 85C372 84 372 82 372 81C372 29 395 -12 452 -12C472 -12 492 -7 504 0L513 65C507 63 504 63 495 63C479 63 474 70 474 85ZM230 67C185 67 142 98 142 168C142 189 146 222 154 273C174 404 229 467 331 467C374 467 407 457 424 447L396 249C361 132 298 67 230 67Z"/>
<glyph unicode="&#xe6;" horiz-adv-x="886" d="M677 541C572 541 509 492 465 433C454 502 395 541 290 541C187 541 98 489 77 373L166 373C181 437 229 463 287 463C353 463 396 438 396 384C396 369 393 354 386 306L262 306C126 306 47 253 34 176C30 150 27 132 27 111C27 31 94 -12 192 -12C274 -12 347 23 399 84C432 25 496 -12 586 -12C701 -12 800 66 817 166L731 166C719 120 665 67 591 67C517 67 463 108 463 194C463 204 464 215 466 235C626 235 829 238 847 359C850 378 852 394 852 406C852 474 793 541 677 541ZM750 370C738 310 623 304 476 304C494 398 558 463 659 463C718 463 754 444 754 399C754 391 752 381 750 370ZM205 66C155 66 131 92 131 130C131 142 132 152 135 164C147 214 187 237 270 237L376 237C373 217 373 206 373 194C373 179 374 165 376 152C331 96 267 66 205 66Z"/>
<glyph unicode="&#xe7;" horiz-adv-x="542" d="M257 67C183 67 142 116 145 200C146 222 149 249 157 298C174 403 228 463 308 463C378 463 416 428 416 357L507 357C507 465 439 541 310 541C152 541 80 438 57 296C48 241 46 209 46 190C46 87 101 11 200 -8L186 -104C251 -104 267 -119 264 -142C264 -144 264 -147 263 -151C259 -177 235 -182 208 -182C188 -182 165 -179 139 -173L132 -227C151 -235 189 -239 218 -239C285 -239 327 -213 335 -157C337 -144 339 -139 339 -132C339 -92 306 -65 256 -57L262 -12C400 -6 459 79 483 176L390 176C375 112 334 67 257 67Z"/>
<glyph unicode="&#xe8;" horiz-adv-x="560" d="M407 616L285 759L168 759L323 616ZM521 355C524 381 526 392 526 403C526 473 459 541 331 541C162 541 75 426 56 292C48 233 45 214 45 194C45 73 117 -12 253 -12C379 -12 471 65 490 166L403 166C387 111 338 67 259 67C189 67 145 108 145 194C145 201 146 208 147 218C312 219 504 236 521 355ZM328 463C388 463 428 444 427 398C427 391 426 384 424 370C415 308 307 288 155 287C155 289 156 291 156 293C169 392 218 463 328 463Z"/>
<glyph unicode="&#xe9;" horiz-adv-x="560" d="M545 759L431 759L269 616L355 616ZM331 541C162 541 75 426 56 292C48 233 45 214 45 194C45 73 117 -12 253 -12C379 -12 471 65 490 166L403 166C387 111 338 67 259 67C189 67 145 108 145 194C145 201 146 208 147 218C312 219 504 236 521 355C524 381 526 392 526 403C526 473 459 541 331 541ZM427 398C427 391 426 384 424 370C415 308 307 288 155 287C155 289 156 291 156 293C169 392 218 463 328 463C388 463 428 444 427 398Z"/>
<glyph unicode="&#xea;" horiz-adv-x="560" d="M356 699L414 620L515 620L400 759L325 759L170 620L271 620ZM521 355C524 381 526 392 526 403C526 473 459 541 331 541C162 541 75 426 56 292C48 233 45 214 45 194C45 73 117 -12 253 -12C379 -12 471 65 490 166L403 166C387 111 338 67 259 67C189 67 145 108 145 194C145 201 146 208 147 218C312 219 504 236 521 355ZM328 463C388 463 428 444 427 398C427 391 426 384 424 370C415 308 307 288 155 287C155 289 156 291 156 293C169 392 218 463 328 463Z"/>
<glyph unicode="&#xeb;" horiz-adv-x="560" d="M224 634C260 634 284 661 284 693C284 719 267 745 232 745C196 745 171 718 171 686C171 660 189 634 224 634ZM451 634C487 634 512 661 512 693C512 719 495 745 460 745C424 745 399 718 399 686C399 660 416 634 451 634ZM521 355C524 381 526 392 526 403C526 473 459 541 331 541C162 541 75 426 56 292C48 233 45 214 45 194C45 73 117 -12 253 -12C379 -12 471 65 490 166L403 166C387 111 338 67 259 67C189 67 145 108 145 194C145 201 146 208 147 218C312 219 504 236 521 355ZM328 463C388 463 428 444 427 398C427 391 426 384 424 370C415 308 307 288 155 287C155 289 156 291 156 293C169 392 218 463 328 463Z"/>
<glyph unicode="&#xec;" horiz-adv-x="308" d="M278 616L156 759L39 759L194 616ZM68 529L58 453L140 453L77 0L177 0L251 529Z"/>
<glyph unicode="&#xed;" horiz-adv-x="308" d="M416 759L302 759L140 616L226 616ZM68 529L58 453L140 453L77 0L177 0L251 529Z"/>
<glyph unicode="&#xee;" horiz-adv-x="308" d="M271 759L196 759L41 620L142 620L227 699L285 620L386 620ZM68 529L58 453L140 453L77 0L177 0L251 529Z"/>
<glyph unicode="&#xef;" horiz-adv-x="308" d="M155 693C155 719 138 745 103 745C67 745 42 718 42 686C42 660 60 634 95 634C131 634 155 661 155 693ZM331 745C295 745 270 718 270 686C270 660 287 634 322 634C358 634 383 661 383 693C383 719 366 745 331 745ZM68 529L58 453L140 453L77 0L177 0L251 529Z"/>
<glyph unicode="&#xf0;" horiz-adv-x="595" d="M421 689L489 781L412 781L366 718C320 738 264 750 200 752L189 670C237 667 278 659 313 646L245 553L321 553L369 617C426 577 456 514 456 430C456 414 455 399 452 372C418 427 358 462 274 462C142 462 67 372 51 259C44 216 42 197 42 179C42 74 114 -12 265 -12C426 -12 515 98 537 258C547 327 551 361 551 401C551 530 508 629 421 689ZM266 66C186 66 144 113 144 186C144 202 146 221 151 256C162 329 206 383 290 383C360 383 404 355 440 282L437 261C419 129 356 66 266 66Z"/>
<glyph unicode="&#xf1;" horiz-adv-x="604" d="M298 675C333 675 368 634 430 634C475 634 524 660 541 732L472 732C467 716 456 700 431 700C396 700 361 742 299 742C255 742 206 716 189 644L257 644C262 660 275 675 298 675ZM386 541C323 541 260 515 209 432L216 529L131 529L57 0L157 0L198 300C235 405 301 463 364 463C406 463 435 439 435 385C435 376 434 367 433 357L383 0L483 0L531 340C533 357 534 372 534 387C534 493 472 541 386 541Z"/>
<glyph unicode="&#xf2;" horiz-adv-x="590" d="M297 759L180 759L335 616L419 616ZM323 541C158 541 76 435 56 293C48 234 45 214 45 191C45 72 115 -12 265 -12C431 -12 514 93 534 238C542 296 545 315 545 339C545 458 474 541 323 541ZM319 463C402 463 445 416 445 335C445 320 443 300 434 239C419 130 360 67 270 67C187 67 145 115 145 197C145 214 147 233 156 295C171 401 229 463 319 463Z"/>
<glyph unicode="&#xf3;" horiz-adv-x="590" d="M443 759L281 616L367 616L557 759ZM323 541C158 541 76 435 56 293C48 234 45 214 45 191C45 72 115 -12 265 -12C431 -12 514 93 534 238C542 296 545 315 545 339C545 458 474 541 323 541ZM319 463C402 463 445 416 445 335C445 320 443 300 434 239C419 130 360 67 270 67C187 67 145 115 145 197C145 214 147 233 156 295C171 401 229 463 319 463Z"/>
<glyph unicode="&#xf4;" horiz-adv-x="590" d="M182 620L283 620L368 699L426 620L527 620L412 759L337 759ZM323 541C158 541 76 435 56 293C48 234 45 214 45 191C45 72 115 -12 265 -12C431 -12 514 93 534 238C542 296 545 315 545 339C545 458 474 541 323 541ZM319 463C402 463 445 416 445 335C445 320 443 300 434 239C419 130 360 67 270 67C187 67 145 115 145 197C145 214 147 233 156 295C171 401 229 463 319 463Z"/>
<glyph unicode="&#xf5;" horiz-adv-x="590" d="M420 634C465 634 514 660 531 732L462 732C457 716 446 700 421 700C386 700 351 742 289 742C245 742 196 716 179 644L247 644C252 660 265 675 288 675C323 675 358 634 420 634ZM323 541C158 541 76 435 56 293C48 234 45 214 45 191C45 72 115 -12 265 -12C431 -12 514 93 534 238C542 296 545 315 545 339C545 458 474 541 323 541ZM319 463C402 463 445 416 445 335C445 320 443 300 434 239C419 130 360 67 270 67C187 67 145 115 145 197C145 214 147 233 156 295C171 401 229 463 319 463Z"/>
<glyph unicode="&#xf6;" horiz-adv-x="590" d="M245 745C209 745 184 718 184 686C184 660 202 634 237 634C273 634 297 661 297 693C297 719 280 745 245 745ZM473 745C437 745 412 718 412 686C412 660 429 634 464 634C500 634 525 661 525 693C525 719 508 745 473 745ZM323 541C158 541 76 435 56 293C48 234 45 214 45 191C45 72 115 -12 265 -12C431 -12 514 93 534 238C542 296 545 315 545 339C545 458 474 541 323 541ZM319 463C402 463 445 416 445 335C445 320 443 300 434 239C419 130 360 67 270 67C187 67 145 115 145 197C145 214 147 233 156 295C171 401 229 463 319 463Z"/>
<glyph unicode="&#xf7;" horiz-adv-x="600" d="M326 612C280 612 253 581 253 537C253 502 278 474 319 474C363 474 392 507 392 549C392 582 368 612 326 612ZM505 385L128 385L117 304L494 304ZM293 75C340 75 367 106 367 150C367 185 341 213 301 213C256 213 228 180 228 138C228 105 251 75 293 75Z"/>
<glyph unicode="&#xf8;" horiz-adv-x="590" d="M491 484L558 580L467 580L427 525C398 535 363 541 323 541C158 541 76 435 56 293C48 234 45 214 45 191C45 132 62 83 96 47L36 -40L129 -40L159 6C189 -6 224 -12 265 -12C430 -12 515 93 534 238C542 296 545 318 545 339C545 398 528 448 491 484ZM156 295C171 401 229 463 319 463C348 463 371 460 389 454L155 113C148 128 145 146 145 168C145 214 147 233 156 295ZM434 239C419 130 360 66 270 67C240 67 217 70 199 76L433 416C442 396 445 370 445 335C445 320 443 300 434 239Z"/>
<glyph unicode="&#xf9;" horiz-adv-x="582" d="M293 759L176 759L331 616L415 616ZM545 529L445 529L396 181C386 117 350 68 265 68C189 68 160 106 160 157C160 164 161 173 162 182L211 529L111 529L62 178C60 166 60 156 60 146C60 55 122 -12 261 -12C417 -12 481 71 496 177Z"/>
<glyph unicode="&#xfa;" horiz-adv-x="582" d="M439 759L277 616L363 616L553 759ZM545 529L445 529L396 181C386 117 350 68 265 68C189 68 160 106 160 157C160 164 161 173 162 182L211 529L111 529L62 178C60 166 60 156 60 146C60 55 122 -12 261 -12C417 -12 481 71 496 177Z"/>
<glyph unicode="&#xfb;" horiz-adv-x="582" d="M178 620L279 620L364 699L422 620L523 620L408 759L333 759ZM545 529L445 529L396 181C386 117 350 68 265 68C189 68 160 106 160 157C160 164 161 173 162 182L211 529L111 529L62 178C60 166 60 156 60 146C60 55 122 -12 261 -12C417 -12 481 71 496 177Z"/>
<glyph unicode="&#xfc;" horiz-adv-x="582" d="M241 745C205 745 180 718 180 686C180 660 198 634 233 634C269 634 293 661 293 693C293 719 276 745 241 745ZM469 745C433 745 408 718 408 686C408 660 425 634 460 634C496 634 521 661 521 693C521 719 504 745 469 745ZM545 529L445 529L396 181C386 117 350 68 265 68C189 68 160 106 160 157C160 164 161 173 162 182L211 529L111 529L62 178C60 166 60 156 60 146C60 55 122 -12 261 -12C417 -12 481 71 496 177Z"/>
<glyph unicode="&#xfd;" horiz-adv-x="539" d="M416 759L254 616L340 616L530 759ZM95 -212C172 -212 222 -182 271 -74L543 529L446 529L242 75L168 529L70 529L168 0L213 0L185 -65C161 -118 129 -138 88 -138C65 -138 41 -136 20 -132L9 -203C25 -207 61 -212 95 -212Z"/>
<glyph unicode="&#xfe;" horiz-adv-x="596" d="M379 541C324 541 269 520 222 459L261 740L161 740L29 -200L129 -200L163 39C195 10 239 -12 298 -12C386 -12 511 59 536 234C544 297 547 317 547 341C548 462 482 541 379 541ZM436 239C418 119 353 67 284 67C236 67 197 84 173 114L203 324C241 413 300 463 358 463C412 463 447 422 447 343C447 318 444 302 436 239Z"/>
<glyph unicode="&#xff;" horiz-adv-x="539" d="M217 745C181 745 156 718 156 686C156 660 174 634 209 634C245 634 269 661 269 693C269 719 252 745 217 745ZM445 745C409 745 384 718 384 686C384 660 401 634 436 634C472 634 497 661 497 693C497 719 480 745 445 745ZM95 -212C172 -212 222 -182 271 -74L543 529L446 529L242 75L168 529L70 529L168 0L213 0L185 -65C161 -118 129 -138 88 -138C65 -138 41 -136 20 -132L9 -203C25 -207 61 -212 95 -212Z"/>
<glyph unicode="&#x100;" horiz-adv-x="635" d="M530 849L262 849L252 784L521 784ZM471 0L576 0L443 700L303 700L-15 0L92 0L180 200L435 200ZM367 627L421 284L217 284Z"/>
<glyph unicode="&#x101;" horiz-adv-x="594" d="M490 703L222 703L212 638L480 638ZM474 85C474 90 475 100 476 107L531 493C508 505 430 541 323 541C180 541 80 452 54 278C48 237 41 185 41 163C41 50 119 -12 209 -12C269 -12 325 13 373 85C372 84 372 82 372 81C372 29 395 -12 452 -12C472 -12 492 -7 504 0L513 65C507 63 504 63 495 63C479 63 474 70 474 85ZM230 67C185 67 142 98 142 168C142 189 146 222 154 273C174 404 229 467 331 467C374 467 407 457 424 447L396 249C361 132 298 67 230 67Z"/>
<glyph unicode="&#x102;" horiz-adv-x="635" d="M393 759C488 759 550 813 562 888L492 888C477 852 444 826 396 826C343 826 320 851 316 888L245 888C247 813 298 759 393 759ZM471 0L576 0L443 700L303 700L-15 0L92 0L180 200L435 200ZM367 627L421 284L217 284Z"/>
<glyph unicode="&#x103;" horiz-adv-x="594" d="M342 614C439 614 491 677 514 759L443 759C426 714 397 680 344 680C289 680 265 718 265 759L194 759C193 677 248 614 342 614ZM474 85C474 90 475 100 476 107L531 493C508 505 430 541 323 541C180 541 80 452 54 278C48 237 41 185 41 163C41 50 119 -12 209 -12C269 -12 325 13 373 85C372 84 372 82 372 81C372 29 395 -12 452 -12C472 -12 492 -7 504 0L513 65C507 63 504 63 495 63C479 63 474 70 474 85ZM230 67C185 67 142 98 142 168C142 189 146 222 154 273C174 404 229 467 331 467C374 467 407 457 424 447L396 249C361 132 298 67 230 67Z"/>
<glyph unicode="&#x104;" horiz-adv-x="635" d="M542 0L576 0L443 700L303 700L-15 0L92 0L180 200L435 200L468 20C361 -13 308 -74 308 -147C308 -197 339 -230 419 -230C443 -230 466 -227 480 -223L498 -156C473 -161 454 -163 434 -163C399 -163 385 -150 385 -126C385 -61 453 -23 542 0ZM367 627L421 284L217 284Z"/>
<glyph unicode="&#x105;" horiz-adv-x="594" d="M474 85C474 90 475 100 476 107L531 493C508 505 430 541 323 541C180 541 80 452 54 278C48 237 41 185 41 163C41 50 119 -12 209 -12C269 -12 325 13 373 85C372 84 372 82 372 81C372 51 380 25 397 8C312 -26 270 -82 270 -147C270 -197 301 -230 381 -230C405 -230 428 -227 442 -223L460 -156C435 -161 416 -163 396 -163C361 -163 347 -150 347 -126C347 -70 397 -34 468 -11C482 -9 495 -5 504 0L513 65C507 63 504 63 495 63C479 63 474 70 474 85ZM230 67C185 67 142 98 142 168C142 189 146 222 154 273C174 404 229 467 331 467C374 467 407 457 424 447L396 249C361 132 298 67 230 67Z"/>
<glyph unicode="&#x106;" horiz-adv-x="625" d="M510 889L349 746L433 746L627 889ZM304 -12C478 -12 542 83 569 200L471 200C454 122 406 69 310 69C214 69 168 125 168 208C168 221 169 236 172 256L199 447C215 559 271 631 379 631C471 631 520 563 511 500L608 500C609 507 609 515 609 521C609 623 528 712 378 712C211 712 122 605 100 454L71 258C67 232 67 218 67 204C67 76 156 -12 304 -12Z"/>
<glyph unicode="&#x107;" horiz-adv-x="542" d="M421 759L259 616L345 616L535 759ZM248 -12C396 -12 459 76 483 176L390 176C375 112 334 67 257 67C183 67 142 116 145 200C146 222 149 249 157 298C174 403 228 463 308 463C378 463 416 428 416 357L507 357C507 465 439 541 310 541C152 541 80 438 57 296C48 241 46 209 46 190C46 71 120 -12 248 -12Z"/>
<glyph unicode="&#x108;" horiz-adv-x="625" d="M234 745L335 745L418 823L478 745L580 745L464 879L389 879ZM304 -12C478 -12 542 83 569 200L471 200C454 122 406 69 310 69C214 69 168 125 168 208C168 221 169 236 172 256L199 447C215 559 271 631 379 631C471 631 520 563 511 500L608 500C609 507 609 515 609 521C609 623 528 712 378 712C211 712 122 605 100 454L71 258C67 232 67 218 67 204C67 76 156 -12 304 -12Z"/>
<glyph unicode="&#x109;" horiz-adv-x="542" d="M160 620L261 620L346 699L404 620L505 620L390 759L315 759ZM248 -12C396 -12 459 76 483 176L390 176C375 112 334 67 257 67C183 67 142 116 145 200C146 222 149 249 157 298C174 403 228 463 308 463C378 463 416 428 416 357L507 357C507 465 439 541 310 541C152 541 80 438 57 296C48 241 46 209 46 190C46 71 120 -12 248 -12Z"/>
<glyph unicode="&#x10a;" horiz-adv-x="625" d="M401 756C439 756 470 787 470 825C470 859 446 881 412 881C374 881 344 851 344 813C344 779 367 756 401 756ZM304 -12C478 -12 542 83 569 200L471 200C454 122 406 69 310 69C214 69 168 125 168 208C168 221 169 236 172 256L199 447C215 559 271 631 379 631C471 631 520 563 511 500L608 500C609 507 609 515 609 521C609 623 528 712 378 712C211 712 122 605 100 454L71 258C67 232 67 218 67 204C67 76 156 -12 304 -12Z"/>
<glyph unicode="&#x10b;" horiz-adv-x="542" d="M327 630C365 630 396 661 396 699C396 733 372 755 338 755C300 755 270 725 270 687C270 653 293 630 327 630ZM248 -12C396 -12 459 76 483 176L390 176C375 112 334 67 257 67C183 67 142 116 145 200C146 222 149 249 157 298C174 403 228 463 308 463C378 463 416 428 416 357L507 357C507 465 439 541 310 541C152 541 80 438 57 296C48 241 46 209 46 190C46 71 120 -12 248 -12Z"/>
<glyph unicode="&#x10c;" horiz-adv-x="625" d="M359 755L434 755L589 889L487 889L402 811L345 889L244 889ZM304 -12C478 -12 542 83 569 200L471 200C454 122 406 69 310 69C214 69 168 125 168 208C168 221 169 236 172 256L199 447C215 559 271 631 379 631C471 631 520 563 511 500L608 500C609 507 609 515 609 521C609 623 528 712 378 712C211 712 122 605 100 454L71 258C67 232 67 218 67 204C67 76 156 -12 304 -12Z"/>
<glyph unicode="&#x10d;" horiz-adv-x="542" d="M275 620L351 620L505 759L400 759L319 681L258 759L160 759ZM248 -12C396 -12 459 76 483 176L390 176C375 112 334 67 257 67C183 67 142 116 145 200C146 222 149 249 157 298C174 403 228 463 308 463C378 463 416 428 416 357L507 357C507 465 439 541 310 541C152 541 80 438 57 296C48 241 46 209 46 190C46 71 120 -12 248 -12Z"/>
<glyph unicode="&#x10e;" horiz-adv-x="684" d="M427 755L582 889L480 889L395 811L338 889L237 889L352 755ZM398 700L277 700L175 700L77 0L140 0L289 0C525 0 590 106 617 298C634 417 638 453 638 483C639 612 565 700 398 700ZM537 477C536 453 532 423 515 296C494 154 449 81 304 81L190 81L266 619L381 619C500 619 537 562 537 477Z"/>
<glyph unicode="&#x10f;" horiz-adv-x="602" d="M438 487C406 517 360 541 299 541C203 541 89 470 62 295C53 239 50 212 50 188C49 68 115 -12 219 -12C278 -12 337 13 387 85L389 0L470 0L575 740L474 740ZM670 740L619 556L681 556L754 740ZM239 67C185 67 150 109 151 188C151 213 153 238 162 290C182 411 244 463 313 463C363 463 403 444 427 411L400 219C363 122 300 67 239 67Z"/>
<glyph unicode="&#x110;" horiz-adv-x="684" d="M398 700L277 700L175 700L130 381L86 381L78 316L121 316L77 0L140 0L289 0C525 0 590 106 617 298C634 417 638 453 638 483C639 612 565 700 398 700ZM537 477C536 453 532 423 515 296C494 154 449 81 304 81L190 81L223 316L378 316L387 381L232 381L266 619L381 619C500 619 537 562 537 477Z"/>
<glyph unicode="&#x111;" horiz-adv-x="611" d="M610 665L564 665L575 740L474 740L463 665L335 665L327 599L454 599L438 487C406 517 360 541 299 541C203 541 89 470 62 295C53 239 50 212 50 188C49 68 115 -12 219 -12C278 -12 337 13 387 85L389 0L470 0L555 599L601 599ZM239 67C185 67 150 109 151 188C151 213 153 238 162 290C182 411 244 463 313 463C363 463 403 444 427 411L400 219C363 122 300 67 239 67Z"/>
<glyph unicode="&#x112;" horiz-adv-x="584" d="M529 849L261 849L251 784L520 784ZM559 621L570 700L277 700L175 700L77 0L79 0L472 0L484 79L190 79L223 317L495 317L506 396L234 396L266 621Z"/>
<glyph unicode="&#x113;" horiz-adv-x="560" d="M478 703L210 703L200 638L468 638ZM521 355C524 381 526 392 526 403C526 473 459 541 331 541C162 541 75 426 56 292C48 233 45 214 45 194C45 73 117 -12 253 -12C379 -12 471 65 490 166L403 166C387 111 338 67 259 67C189 67 145 108 145 194C145 201 146 208 147 218C312 219 504 236 521 355ZM328 463C388 463 428 444 427 398C427 391 426 384 424 370C415 308 307 288 155 287C155 289 156 291 156 293C169 392 218 463 328 463Z"/>
<glyph unicode="&#x116;" horiz-adv-x="584" d="M385 756C423 756 454 787 454 825C454 859 430 881 396 881C358 881 328 851 328 813C328 779 351 756 385 756ZM559 621L570 700L277 700L175 700L77 0L79 0L472 0L484 79L190 79L223 317L495 317L506 396L234 396L266 621Z"/>
<glyph unicode="&#x117;" horiz-adv-x="560" d="M337 630C375 630 406 661 406 699C406 733 382 755 348 755C310 755 280 725 280 687C280 653 303 630 337 630ZM521 355C524 381 526 392 526 403C526 473 459 541 331 541C162 541 75 426 56 292C48 233 45 214 45 194C45 73 117 -12 253 -12C379 -12 471 65 490 166L403 166C387 111 338 67 259 67C189 67 145 108 145 194C145 201 146 208 147 218C312 219 504 236 521 355ZM328 463C388 463 428 444 427 398C427 391 426 384 424 370C415 308 307 288 155 287C155 289 156 291 156 293C169 392 218 463 328 463Z"/>
<glyph unicode="&#x118;" horiz-adv-x="584" d="M559 621L570 700L277 700L175 700L77 0L79 0L347 0C275 -35 239 -87 239 -147C239 -197 270 -230 350 -230C374 -230 397 -227 411 -223L429 -156C404 -161 385 -163 365 -163C330 -163 316 -150 316 -126C316 -61 384 -23 473 0L473 2L484 79L190 79L223 317L495 317L506 396L234 396L266 621Z"/>
<glyph unicode="&#x119;" horiz-adv-x="560" d="M521 355C524 381 526 392 526 403C526 473 459 541 331 541C162 541 75 426 56 292C48 233 45 214 45 194C45 91 97 14 196 -7C133 -41 101 -91 101 -147C101 -197 131 -230 212 -230C236 -230 258 -227 273 -223L291 -156C266 -161 247 -163 226 -163C192 -163 178 -150 178 -123C178 -64 239 -29 321 -4C411 18 474 84 490 166L403 166C387 111 338 67 259 67C189 67 145 108 145 194C145 201 146 208 147 218C312 219 504 236 521 355ZM328 463C388 463 428 444 427 398C427 391 426 384 424 370C415 308 307 288 155 287C155 289 156 291 156 293C169 392 218 463 328 463Z"/>
<glyph unicode="&#x11a;" horiz-adv-x="584" d="M418 755L573 889L471 889L386 811L329 889L228 889L343 755ZM570 700L175 700L77 0L79 0L472 0L484 79L190 79L223 317L495 317L506 396L234 396L266 621L559 621Z"/>
<glyph unicode="&#x11b;" horiz-adv-x="560" d="M361 620L515 759L410 759L329 681L268 759L170 759L285 620ZM521 355C524 381 526 392 526 403C526 473 459 541 331 541C162 541 75 426 56 292C48 233 45 214 45 194C45 73 117 -12 253 -12C379 -12 471 65 490 166L403 166C387 111 338 67 259 67C189 67 145 108 145 194C145 201 146 208 147 218C312 219 504 236 521 355ZM328 463C388 463 428 444 427 398C427 391 426 384 424 370C415 308 307 288 155 287C155 289 156 291 156 293C169 392 218 463 328 463Z"/>
<glyph unicode="&#x11c;" horiz-adv-x="664" d="M421 823L481 745L583 745L467 879L392 879L237 745L338 745ZM623 510C627 615 550 712 391 712C210 712 122 609 96 427L70 250C68 234 67 218 67 204C67 61 171 -12 286 -12C368 -12 426 19 470 62L470 0L553 0L605 380L342 380L331 301L496 301L474 148C438 100 394 69 315 69C232 69 170 117 170 215C170 228 171 241 173 255L198 429C217 564 277 631 388 631C488 631 530 578 529 510Z"/>
<glyph unicode="&#x11d;" horiz-adv-x="603" d="M373 699L431 620L532 620L417 759L342 759L187 620L288 620ZM334 541C193 541 88 476 62 296C57 261 51 231 51 190C51 86 123 19 222 19C281 19 339 42 389 114L374 -7C362 -101 305 -133 241 -133C182 -133 130 -109 122 -36L28 -36C30 -148 113 -212 240 -212C374 -212 451 -145 470 -11L541 494C480 522 410 541 334 541ZM242 97C189 97 152 132 152 198C152 237 155 254 161 292C182 415 234 467 334 467C376 467 409 461 435 448L405 252C368 152 304 97 242 97Z"/>
<glyph unicode="&#x11e;" horiz-adv-x="664" d="M410 759C505 759 567 813 579 888L509 888C494 852 461 826 413 826C360 826 337 851 333 888L262 888C264 813 315 759 410 759ZM623 510C627 615 550 712 391 712C210 712 122 609 96 427L70 250C68 234 67 218 67 204C67 61 171 -12 286 -12C368 -12 426 19 470 62L470 0L553 0L605 380L342 380L331 301L496 301L474 148C438 100 394 69 315 69C232 69 170 117 170 215C170 228 171 241 173 255L198 429C217 564 277 631 388 631C488 631 530 578 529 510Z"/>
<glyph unicode="&#x11f;" horiz-adv-x="603" d="M347 614C444 614 496 677 519 759L448 759C431 714 402 680 349 680C294 680 270 718 270 759L199 759C198 677 253 614 347 614ZM334 541C193 541 88 476 62 296C57 261 51 231 51 190C51 86 123 19 222 19C281 19 339 42 389 114L374 -7C362 -101 305 -133 241 -133C182 -133 130 -109 122 -36L28 -36C30 -148 113 -212 240 -212C374 -212 451 -145 470 -11L541 494C480 522 410 541 334 541ZM242 97C189 97 152 132 152 198C152 237 155 254 161 292C182 415 234 467 334 467C376 467 409 461 435 448L405 252C368 152 304 97 242 97Z"/>
<glyph unicode="&#x120;" horiz-adv-x="664" d="M404 756C442 756 473 787 473 825C473 859 449 881 415 881C377 881 347 851 347 813C347 779 370 756 404 756ZM623 510C627 615 550 712 391 712C210 712 122 609 96 427L70 250C68 234 67 218 67 204C67 61 171 -12 286 -12C368 -12 426 19 470 62L470 0L553 0L605 380L342 380L331 301L496 301L474 148C438 100 394 69 315 69C232 69 170 117 170 215C170 228 171 241 173 255L198 429C217 564 277 631 388 631C488 631 530 578 529 510Z"/>
<glyph unicode="&#x121;" horiz-adv-x="603" d="M354 630C392 630 423 661 423 699C423 733 399 755 365 755C327 755 297 725 297 687C297 653 320 630 354 630ZM334 541C193 541 88 476 62 296C57 261 51 231 51 190C51 86 123 19 222 19C281 19 339 42 389 114L374 -7C362 -101 305 -133 241 -133C182 -133 130 -109 122 -36L28 -36C30 -148 113 -212 240 -212C374 -212 451 -145 470 -11L541 494C480 522 410 541 334 541ZM242 97C189 97 152 132 152 198C152 237 155 254 161 292C182 415 234 467 334 467C376 467 409 461 435 448L405 252C368 152 304 97 242 97Z"/>
<glyph unicode="&#x122;" horiz-adv-x="664" d="M623 510C627 615 550 712 391 712C210 712 122 609 96 427L70 250C68 234 67 218 67 204C67 61 171 -12 286 -12C368 -12 426 19 470 62L470 0L553 0L605 380L342 380L331 301L496 301L474 148C438 100 394 69 315 69C232 69 170 117 170 215C170 228 171 241 173 255L198 429C217 564 277 631 388 631C488 631 530 578 529 510ZM289 -69C249 -69 225 -99 225 -135C225 -153 232 -167 243 -178L193 -307L249 -307L307 -211C343 -154 348 -140 348 -118C348 -89 327 -69 289 -69Z"/>
<glyph unicode="&#x123;" horiz-adv-x="603" d="M346 609C386 609 410 639 410 675C410 693 403 707 392 718L442 847L386 847L328 751C292 694 287 680 287 658C287 629 308 609 346 609ZM334 541C193 541 88 476 62 296C57 261 51 231 51 190C51 86 123 19 222 19C281 19 339 42 389 114L374 -7C362 -101 305 -133 241 -133C182 -133 130 -109 122 -36L28 -36C30 -148 113 -212 240 -212C374 -212 451 -145 470 -11L541 494C480 522 410 541 334 541ZM242 97C189 97 152 132 152 198C152 237 155 254 161 292C182 415 234 467 334 467C376 467 409 461 435 448L405 252C368 152 304 97 242 97Z"/>
<glyph unicode="&#x124;" horiz-adv-x="745" d="M277 745L378 745L461 823L521 745L623 745L507 879L432 879ZM692 700L590 700L549 404L236 404L277 700L175 700L77 0L179 0L223 319L536 319L492 0L594 0Z"/>
<glyph unicode="&#x125;" horiz-adv-x="604" d="M238 863L298 785L399 785L284 919L209 919L54 785L155 785ZM386 541C327 541 269 518 219 448L261 740L161 740L57 0L157 0L199 302C236 405 301 461 362 461C406 461 435 439 435 385C435 376 435 366 432 347L383 0L483 0L529 330C533 357 534 372 534 387C534 493 472 541 386 541Z"/>
<glyph unicode="&#x126;" horiz-adv-x="745" d="M712 580L675 580L692 700L590 700L573 580L260 580L277 700L175 700L158 580L123 580L114 515L149 515L77 0L179 0L223 319L536 319L492 0L594 0L666 515L703 515ZM549 404L236 404L251 515L564 515Z"/>
<glyph unicode="&#x127;" horiz-adv-x="602" d="M384 541C325 541 267 518 218 448L239 599L368 599L377 665L248 665L259 740L159 740L148 665L102 665L94 599L139 599L55 0L155 0L197 301C234 405 299 461 360 461C404 461 433 439 433 385C433 376 433 366 430 347L381 0L481 0L528 330C532 357 533 372 533 387C533 493 470 541 384 541Z"/>
<glyph unicode="&#x128;" horiz-adv-x="330" d="M302 760C347 760 396 786 412 858L344 858C339 842 328 826 303 826C268 826 233 868 171 868C127 868 78 842 61 770L129 770C134 786 147 801 170 801C205 801 240 760 302 760ZM77 0L179 0L277 700L175 700Z"/>
<glyph unicode="&#x129;" horiz-adv-x="308" d="M321 732C316 716 305 700 280 700C245 700 210 742 148 742C104 742 55 716 38 644L106 644C111 660 124 675 147 675C182 675 217 634 279 634C324 634 373 660 389 732ZM68 529L58 453L140 453L77 0L177 0L251 529Z"/>
<glyph unicode="&#x12a;" horiz-adv-x="330" d="M370 784L380 849L112 849L102 784ZM77 0L179 0L277 700L175 700Z"/>
<glyph unicode="&#x12b;" horiz-adv-x="308" d="M81 703L71 638L339 638L349 703ZM68 529L58 453L140 453L77 0L177 0L251 529Z"/>
<glyph unicode="&#x12e;" horiz-adv-x="330" d="M179 0L277 700L175 700L79 11C-10 -23 -55 -80 -55 -147C-55 -197 -24 -230 56 -230C80 -230 103 -227 117 -223L135 -156C110 -161 91 -163 71 -163C36 -163 22 -150 22 -126C22 -61 90 -23 179 0Z"/>
<glyph unicode="&#x12f;" horiz-adv-x="308" d="M219 755C181 755 151 725 151 687C151 653 174 630 208 630C246 630 277 661 277 699C277 733 253 755 219 755ZM68 529L58 453L140 453L79 12C-12 -22 -57 -80 -57 -147C-57 -197 -26 -230 54 -230C78 -230 101 -227 115 -223L133 -156C108 -161 89 -163 69 -163C34 -163 20 -150 20 -126C20 -61 88 -23 177 0L251 529Z"/>
<glyph unicode="&#x130;" horiz-adv-x="330" d="M236 756C274 756 305 787 305 825C305 859 281 881 247 881C209 881 179 851 179 813C179 779 202 756 236 756ZM77 0L179 0L277 700L175 700Z"/>
<glyph unicode="&#x131;" horiz-adv-x="308" d="M251 529L68 529L58 453L140 453L77 0L177 0Z"/>
<glyph unicode="&#x132;" horiz-adv-x="650" d="M303 -12C454 -12 530 61 548 187L620 700L518 700L447 191C435 108 388 69 306 69C222 69 182 101 182 166L85 166C82 63 149 -12 303 -12ZM91 272L193 272L254 700L152 700Z"/>
<glyph unicode="&#x133;" horiz-adv-x="592" d="M208 630C246 630 277 661 277 699C277 733 253 755 219 755C181 755 151 725 151 687C151 653 174 630 208 630ZM512 755C474 755 444 725 444 687C444 653 467 630 501 630C539 630 570 661 570 699C570 733 546 755 512 755ZM251 529L68 529L58 453L140 453L77 0L177 0ZM349 -76C342 -116 327 -136 281 -136C267 -136 251 -135 233 -132L224 -203C246 -209 277 -212 302 -212C387 -212 437 -170 448 -91L533 529L433 529Z"/>
<glyph unicode="&#x134;" horiz-adv-x="525" d="M285 745L386 745L469 823L529 745L631 745L515 879L440 879ZM198 -12C330 -12 404 61 422 186L494 700L392 700L321 190C309 108 264 69 199 69C138 69 97 101 96 166L-1 166C-4 63 65 -12 198 -12Z"/>
<glyph unicode="&#x135;" horiz-adv-x="284" d="M26 620L127 620L212 699L270 620L371 620L256 759L181 759ZM125 529L41 -76C34 -116 19 -136 -27 -136C-41 -136 -57 -135 -75 -132L-84 -203C-62 -209 -31 -212 -6 -212C79 -212 129 -170 140 -91L225 529Z"/>
<glyph unicode="&#x136;" horiz-adv-x="651" d="M538 103L375 392L660 700L551 700L224 352L272 700L175 700L77 0L174 0L204 215L304 322L446 62C475 9 503 -8 553 -8C572 -8 586 -4 600 1L612 71C605 70 601 70 592 70C568 70 553 75 538 103ZM303 -69C263 -69 239 -99 239 -135C239 -153 246 -167 257 -178L207 -307L263 -307L321 -211C357 -154 362 -140 362 -118C362 -89 341 -69 303 -69Z"/>
<glyph unicode="&#x137;" horiz-adv-x="552" d="M450 98L329 326L546 529L423 529L202 320L261 740L161 740L57 0L157 0L184 192L251 257L352 65C384 5 411 -8 456 -8C474 -8 489 -5 500 0L510 66C506 65 505 65 502 65C476 65 465 70 450 98ZM263 -69C223 -69 199 -99 199 -135C199 -153 206 -167 217 -178L167 -307L223 -307L281 -211C317 -154 322 -140 322 -118C322 -89 301 -69 263 -69Z"/>
<glyph unicode="&#x138;" horiz-adv-x="552" d="M450 98L329 326L546 529L423 529L202 320L231 529L131 529L57 0L157 0L184 192L251 257L352 65C384 5 411 -8 456 -8C474 -8 489 -5 500 0L510 66C506 65 505 65 502 65C476 65 465 70 450 98Z"/>
<glyph unicode="&#x139;" horiz-adv-x="520" d="M462 889L345 889L184 746L268 746ZM191 85L277 700L175 700L77 0L79 0L472 0L483 85Z"/>
<glyph unicode="&#x13a;" horiz-adv-x="315" d="M320 929L159 786L243 786L437 929ZM158 -12C195 -12 223 -6 244 0L254 75C231 71 210 69 197 69C171 69 162 78 162 97C162 103 162 108 163 114L251 740L151 740L61 98C60 88 59 79 59 70C59 17 92 -12 158 -12Z"/>
<glyph unicode="&#x13b;" horiz-adv-x="520" d="M191 85L277 700L175 700L77 0L79 0L472 0L483 85ZM266 -69C226 -69 202 -99 202 -135C202 -153 209 -167 220 -178L170 -307L226 -307L284 -211C320 -154 325 -140 325 -118C325 -89 304 -69 266 -69Z"/>
<glyph unicode="&#x13c;" horiz-adv-x="315" d="M158 -12C195 -12 223 -6 244 0L254 75C231 71 210 69 197 69C171 69 162 78 162 97C162 103 162 108 163 114L251 740L151 740L61 98C60 88 59 79 59 70C59 17 92 -12 158 -12ZM46 -307L102 -307L160 -211C196 -154 201 -140 201 -118C201 -89 180 -69 142 -69C102 -69 78 -99 78 -135C78 -153 85 -167 96 -178Z"/>
<glyph unicode="&#x13d;" horiz-adv-x="520" d="M191 85L277 700L175 700L77 0L79 0L472 0L483 85ZM479 700L395 700L344 516L406 516Z"/>
<glyph unicode="&#x13e;" horiz-adv-x="343" d="M158 -12C195 -12 223 -6 244 0L254 75C231 71 210 69 197 69C171 69 162 78 162 97C162 103 162 108 163 114L251 740L151 740L61 98C60 88 59 79 59 70C59 17 92 -12 158 -12ZM340 740L289 556L351 556L424 740Z"/>
<glyph unicode="&#x13f;" horiz-adv-x="525" d="M277 700L175 700L77 0L79 0L472 0L483 85L191 85ZM427 338C465 338 496 369 496 407C496 441 472 463 438 463C400 463 370 433 370 395C370 361 393 338 427 338Z"/>
<glyph unicode="&#x140;" horiz-adv-x="341" d="M158 -12C195 -12 223 -6 244 0L254 75C231 71 210 69 197 69C171 69 162 78 162 97C162 103 162 108 163 114L251 740L151 740L61 98C60 88 59 79 59 70C59 17 92 -12 158 -12ZM313 338C351 338 382 369 382 407C382 441 359 463 325 463C287 463 256 433 256 395C256 361 279 338 313 338Z"/>
<glyph unicode="&#x141;" horiz-adv-x="530" d="M201 85L240 365L389 406L398 481L250 439L287 700L185 700L144 408L70 387L60 314L134 335L87 0L89 0L482 0L493 85Z"/>
<glyph unicode="&#x142;" horiz-adv-x="309" d="M206 377L296 398L306 471L216 450L257 740L157 740L113 426L47 410L37 337L103 352L67 98C66 88 65 79 65 70C65 17 98 -12 164 -12C201 -12 229 -6 250 0L260 75C237 71 217 68 204 68C177 68 168 78 168 97C168 102 168 108 169 114Z"/>
<glyph unicode="&#x143;" horiz-adv-x="743" d="M669 889L552 889L391 746L475 746ZM598 700L518 132L299 700L175 700L77 0L169 0L249 573L469 0L592 0L690 700Z"/>
<glyph unicode="&#x144;" horiz-adv-x="604" d="M567 759L453 759L291 616L377 616ZM386 541C323 541 260 515 209 432L216 529L131 529L57 0L157 0L198 300C235 405 301 463 364 463C406 463 435 439 435 385C435 376 434 367 433 357L383 0L483 0L531 340C533 357 534 372 534 387C534 493 472 541 386 541Z"/>
<glyph unicode="&#x145;" horiz-adv-x="743" d="M598 700L518 132L299 700L175 700L77 0L169 0L249 573L469 0L592 0L690 700ZM327 -69C287 -69 263 -99 263 -135C263 -153 270 -167 281 -178L231 -307L287 -307L345 -211C381 -154 386 -140 386 -118C386 -89 365 -69 327 -69Z"/>
<glyph unicode="&#x146;" horiz-adv-x="604" d="M386 541C323 541 260 515 209 432L216 529L131 529L57 0L157 0L198 300C235 405 301 463 364 463C406 463 435 439 435 385C435 376 434 367 433 357L383 0L483 0L531 340C533 357 534 372 534 387C534 493 472 541 386 541ZM262 -69C222 -69 198 -99 198 -135C198 -153 205 -167 216 -178L166 -307L222 -307L280 -211C316 -154 321 -140 321 -118C321 -89 300 -69 262 -69Z"/>
<glyph unicode="&#x147;" horiz-adv-x="743" d="M476 755L631 889L529 889L444 811L387 889L286 889L401 755ZM598 700L518 132L299 700L175 700L77 0L169 0L249 573L469 0L592 0L690 700Z"/>
<glyph unicode="&#x148;" horiz-adv-x="604" d="M383 620L537 759L432 759L351 681L290 759L192 759L307 620ZM386 541C323 541 260 515 209 432L216 529L131 529L57 0L157 0L198 300C235 405 301 463 364 463C406 463 435 439 435 385C435 376 434 367 433 357L383 0L483 0L531 340C533 357 534 372 534 387C534 493 472 541 386 541Z"/>
<glyph unicode="&#x14a;" horiz-adv-x="743" d="M598 700L518 132L299 700L175 700L77 0L169 0L249 573L469 0L493 0L480 -73C473 -114 459 -136 412 -136C399 -136 383 -135 365 -132L356 -203C378 -209 409 -212 434 -212C519 -212 568 -168 579 -89L592 0L690 700Z"/>
<glyph unicode="&#x14b;" horiz-adv-x="604" d="M386 541C323 541 260 515 209 432L216 529L131 529L57 0L157 0L198 300C235 405 301 463 364 463C406 463 435 439 435 385C435 376 434 367 433 357L383 0L372 -75C366 -116 349 -136 303 -136C290 -136 273 -135 256 -132L246 -203C269 -209 300 -212 325 -212C410 -212 458 -170 470 -91L483 0L531 340C533 357 534 372 534 387C534 493 472 541 386 541Z"/>
<glyph unicode="&#x14c;" horiz-adv-x="704" d="M555 784L564 849L296 849L286 784ZM330 -12C523 -12 611 110 633 273L655 435C657 451 658 468 658 483C658 630 556 712 399 712C204 712 117 590 95 427L73 266C71 247 70 232 70 216C70 70 172 -12 330 -12ZM332 69C234 69 172 120 172 224C172 238 173 252 175 269L197 429C213 546 276 631 398 631C494 631 557 580 557 476C557 462 556 448 553 431L532 272C515 154 452 69 332 69Z"/>
<glyph unicode="&#x14d;" horiz-adv-x="590" d="M480 638L490 703L222 703L212 638ZM323 541C158 541 76 435 56 293C48 234 45 214 45 191C45 72 115 -12 265 -12C431 -12 514 93 534 238C542 296 545 315 545 339C545 458 474 541 323 541ZM319 463C402 463 445 416 445 335C445 320 443 300 434 239C419 130 360 67 270 67C187 67 145 115 145 197C145 214 147 233 156 295C171 401 229 463 319 463Z"/>
<glyph unicode="&#x150;" horiz-adv-x="704" d="M386 885L291 746L357 746L474 885ZM546 885L442 746L507 746L634 885ZM330 -12C523 -12 611 110 633 273L655 435C657 451 658 468 658 483C658 630 556 712 399 712C204 712 117 590 95 427L73 266C71 247 70 232 70 216C70 70 172 -12 330 -12ZM332 69C234 69 172 120 172 224C172 238 173 252 175 269L197 429C213 546 276 631 398 631C494 631 557 580 557 476C557 462 556 448 553 431L532 272C515 154 452 69 332 69Z"/>
<glyph unicode="&#x151;" horiz-adv-x="590" d="M320 759L225 620L291 620L408 759ZM480 759L376 620L441 620L568 759ZM323 541C158 541 76 435 56 293C48 234 45 214 45 191C45 72 115 -12 265 -12C431 -12 514 93 534 238C542 296 545 315 545 339C545 458 474 541 323 541ZM319 463C402 463 445 416 445 335C445 320 443 300 434 239C419 130 360 67 270 67C187 67 145 115 145 197C145 214 147 233 156 295C171 401 229 463 319 463Z"/>
<glyph unicode="&#x152;" horiz-adv-x="1004" d="M989 700L495 700C466 708 434 712 399 712C204 712 117 590 95 427L73 265C71 247 70 232 70 216C70 70 172 -12 330 -12C365 -12 397 -8 426 0L892 0L904 81L556 81C598 131 623 198 633 273L639 316L914 316L925 397L650 397L655 435C657 451 658 468 658 483C658 537 644 583 618 619L978 619ZM172 224C172 238 173 253 175 269L197 429C213 546 276 631 398 631C494 631 556 580 556 476C556 462 555 448 553 431L531 272C515 154 452 69 331 69C234 69 172 120 172 224Z"/>
<glyph unicode="&#x153;" horiz-adv-x="916" d="M878 355C882 389 883 397 883 404C883 473 813 541 705 541C609 541 537 498 491 426C463 490 407 541 308 541C153 541 76 435 56 293C48 234 45 214 45 191C45 71 115 -12 256 -12C355 -12 412 37 451 109C475 35 527 -12 622 -12C736 -12 828 65 847 166L760 166C744 111 699 67 625 67C551 67 503 108 503 194C503 201 503 208 504 218C669 219 861 236 878 355ZM699 463C748 463 792 444 792 398C792 391 791 387 788 370C777 309 665 288 513 287C513 289 513 291 514 293C527 392 588 463 699 463ZM259 67C177 67 135 114 135 197C135 214 137 233 146 295C161 401 218 463 306 463C392 463 434 415 435 334C435 320 433 300 424 239C408 130 349 67 259 67Z"/>
<glyph unicode="&#x154;" horiz-adv-x="668" d="M607 889L490 889L329 746L413 746ZM411 700L277 700L175 700L77 0L179 0L219 286L349 286L430 74C454 12 485 -8 536 -8C552 -8 566 -6 583 0L593 76C588 75 584 74 576 74C552 74 536 81 527 103L453 299C545 324 595 382 605 463L613 528C614 540 614 545 614 553C614 651 538 700 411 700ZM508 493L504 467C495 403 435 367 356 367L230 367L266 619L391 619C458 619 511 591 511 528C511 521 511 512 508 493Z"/>
<glyph unicode="&#x155;" horiz-adv-x="426" d="M510 759L396 759L234 616L320 616ZM224 413L227 529L68 529L58 453L140 453L77 0L177 0L220 314C263 409 320 438 389 438C401 438 417 436 430 433L443 534C428 538 413 539 397 539C333 539 271 507 224 413Z"/>
<glyph unicode="&#x156;" horiz-adv-x="668" d="M411 700L277 700L175 700L77 0L179 0L219 286L349 286L430 74C454 12 485 -8 536 -8C552 -8 566 -6 583 0L593 76C588 75 584 74 576 74C552 74 536 81 527 103L453 299C545 324 595 382 605 463L613 528C614 540 614 545 614 553C614 651 538 700 411 700ZM508 493L504 467C495 403 435 367 356 367L230 367L266 619L391 619C458 619 511 591 511 528C511 521 511 512 508 493ZM325 -69C285 -69 261 -99 261 -135C261 -153 268 -167 279 -178L229 -307L285 -307L343 -211C379 -154 384 -140 384 -118C384 -89 363 -69 325 -69Z"/>
<glyph unicode="&#x157;" horiz-adv-x="426" d="M397 539C333 539 271 507 224 413L227 529L68 529L58 453L140 453L77 0L177 0L220 314C263 409 320 438 389 438C401 438 417 436 430 433L443 534C428 538 413 539 397 539ZM113 -69C73 -69 49 -99 49 -135C49 -153 56 -167 67 -178L17 -307L73 -307L131 -211C167 -154 172 -140 172 -118C172 -89 151 -69 113 -69Z"/>
<glyph unicode="&#x158;" horiz-adv-x="668" d="M414 755L569 889L467 889L382 811L325 889L224 889L339 755ZM411 700L277 700L175 700L77 0L179 0L219 286L349 286L430 74C454 12 485 -8 536 -8C552 -8 566 -6 583 0L593 76C588 75 584 74 576 74C552 74 536 81 527 103L453 299C545 324 595 382 605 463L613 528C614 540 614 545 614 553C614 651 538 700 411 700ZM508 493L504 467C495 403 435 367 356 367L230 367L266 619L391 619C458 619 511 591 511 528C511 521 511 512 508 493Z"/>
<glyph unicode="&#x159;" horiz-adv-x="426" d="M326 620L480 759L375 759L294 681L233 759L135 759L250 620ZM224 413L227 529L68 529L58 453L140 453L77 0L177 0L220 314C263 409 320 438 389 438C401 438 417 436 430 433L443 534C428 538 413 539 397 539C333 539 271 507 224 413Z"/>
<glyph unicode="&#x15a;" horiz-adv-x="642" d="M481 889L320 746L404 746L598 889ZM304 -12C483 -12 548 74 562 162C567 193 569 211 569 224C569 311 513 360 413 392L323 421C245 446 216 470 216 516C216 526 218 538 220 547C226 577 259 631 360 631C472 631 515 575 511 510L609 510C610 632 525 712 367 712C192 712 130 625 118 550C115 531 113 512 113 500C113 424 162 373 252 344L343 314C419 289 465 270 465 212C465 205 464 193 461 171C456 128 422 69 307 69C183 69 136 131 140 199L45 199C41 75 141 -12 304 -12Z"/>
<glyph unicode="&#x15b;" horiz-adv-x="532" d="M412 759L250 616L336 616L526 759ZM247 -12C367 -12 435 31 452 125C456 149 458 167 458 174C457 240 412 271 343 293L268 317C202 339 180 353 180 386C180 394 180 399 182 408C188 440 226 465 285 465C351 465 397 444 393 370L484 370C489 486 422 541 291 541C163 541 102 485 87 411C84 397 82 385 82 371C82 316 114 274 194 249L271 225C345 202 361 183 358 146L355 128C349 87 310 67 246 67C163 67 126 107 129 176L37 176C32 53 110 -12 247 -12Z"/>
<glyph unicode="&#x15c;" horiz-adv-x="642" d="M205 745L306 745L389 823L449 745L551 745L435 879L360 879ZM304 -12C483 -12 548 74 562 162C567 193 569 211 569 224C569 311 513 360 413 392L323 421C245 446 216 470 216 516C216 526 218 538 220 547C226 577 259 631 360 631C472 631 515 575 511 510L609 510C610 632 525 712 367 712C192 712 130 625 118 550C115 531 113 512 113 500C113 424 162 373 252 344L343 314C419 289 465 270 465 212C465 205 464 193 461 171C456 128 422 69 307 69C183 69 136 131 140 199L45 199C41 75 141 -12 304 -12Z"/>
<glyph unicode="&#x15d;" horiz-adv-x="532" d="M150 620L251 620L336 699L394 620L495 620L380 759L305 759ZM247 -12C367 -12 435 31 452 125C456 149 458 167 458 174C457 240 412 271 343 293L268 317C202 339 180 353 180 386C180 394 180 399 182 408C188 440 226 465 285 465C351 465 397 444 393 370L484 370C489 486 422 541 291 541C163 541 102 485 87 411C84 397 82 385 82 371C82 316 114 274 194 249L271 225C345 202 361 183 358 146L355 128C349 87 310 67 246 67C163 67 126 107 129 176L37 176C32 53 110 -12 247 -12Z"/>
<glyph unicode="&#x15e;" horiz-adv-x="642" d="M609 510C610 632 525 712 367 712C192 712 130 625 118 550C115 531 113 512 113 500C113 424 162 373 252 344L343 314C419 289 465 270 465 212C465 205 464 193 461 171C456 128 422 69 307 69C183 69 136 131 140 199L45 199C41 88 120 7 253 -9L239 -104C304 -104 320 -119 317 -142C317 -144 317 -147 316 -151C312 -177 288 -182 261 -182C241 -182 218 -179 192 -173L185 -227C204 -235 242 -239 271 -239C338 -239 380 -213 388 -157C390 -144 392 -139 392 -132C392 -92 359 -65 309 -57L315 -12C486 -8 549 75 562 162C567 193 569 211 569 224C569 311 513 360 413 392L323 421C245 446 216 470 216 516C216 526 218 538 220 547C226 577 259 631 360 631C472 631 515 575 511 510Z"/>
<glyph unicode="&#x15f;" horiz-adv-x="532" d="M484 370C489 486 422 541 291 541C163 541 102 485 87 411C84 397 82 385 82 371C82 316 114 274 194 249L271 225C345 202 361 183 358 146L355 128C349 87 310 67 246 67C163 67 126 107 129 176L37 176C32 63 97 -1 214 -11L201 -104C266 -104 282 -119 279 -142C279 -144 279 -147 278 -151C274 -177 250 -182 223 -182C203 -182 180 -179 154 -173L147 -227C166 -235 204 -239 233 -239C300 -239 342 -213 350 -157C352 -144 354 -139 354 -132C354 -92 321 -65 271 -57L277 -11C379 -4 437 39 452 125C456 149 458 167 458 174C457 240 412 271 343 293L268 317C202 339 180 353 180 386C180 394 180 399 182 408C188 440 226 465 285 465C351 465 397 444 393 370Z"/>
<glyph unicode="&#x160;" horiz-adv-x="642" d="M330 755L405 755L560 889L458 889L373 811L316 889L215 889ZM304 -12C483 -12 548 74 562 162C567 193 569 211 569 224C569 311 513 360 413 392L323 421C245 446 216 470 216 516C216 526 218 538 220 547C226 577 259 631 360 631C472 631 515 575 511 510L609 510C610 632 525 712 367 712C192 712 130 625 118 550C115 531 113 512 113 500C113 424 162 373 252 344L343 314C419 289 465 270 465 212C465 205 464 193 461 171C456 128 422 69 307 69C183 69 136 131 140 199L45 199C41 75 141 -12 304 -12Z"/>
<glyph unicode="&#x161;" horiz-adv-x="532" d="M265 620L341 620L495 759L390 759L309 681L248 759L150 759ZM247 -12C367 -12 435 31 452 125C456 149 458 167 458 174C457 240 412 271 343 293L268 317C202 339 180 353 180 386C180 394 180 399 182 408C188 440 226 465 285 465C351 465 397 444 393 370L484 370C489 486 422 541 291 541C163 541 102 485 87 411C84 397 82 385 82 371C82 316 114 274 194 249L271 225C345 202 361 183 358 146L355 128C349 87 310 67 246 67C163 67 126 107 129 176L37 176C32 53 110 -12 247 -12Z"/>
<glyph unicode="&#x162;" horiz-adv-x="543" d="M285 0L372 619L575 619L586 700L79 700L68 619L270 619L184 0L204 0L188 -104C253 -104 269 -119 266 -142C266 -144 266 -147 265 -151C261 -177 237 -181 210 -181C190 -181 167 -179 141 -173L134 -227C153 -234 191 -239 220 -239C287 -239 329 -213 337 -157C339 -144 341 -139 341 -132C341 -92 308 -65 259 -57L267 0Z"/>
<glyph unicode="&#x163;" horiz-adv-x="397" d="M250 453L369 453L379 529L261 529L279 659L190 659L163 529L77 529L66 453L150 453L103 126C101 111 101 101 101 91C101 37 125 5 174 -7L160 -104C225 -104 241 -119 238 -142C238 -144 238 -147 237 -151C233 -177 209 -182 182 -182C162 -182 139 -179 113 -173L106 -227C125 -235 163 -239 192 -239C259 -239 301 -213 309 -157C311 -144 313 -139 313 -132C313 -92 280 -65 230 -57L236 -12C268 -11 301 -6 320 0L331 75C307 70 284 67 260 67C221 67 203 81 203 112C203 117 203 122 204 132Z"/>
<glyph unicode="&#x164;" horiz-adv-x="543" d="M376 755L531 889L429 889L344 811L287 889L186 889L301 755ZM586 700L79 700L68 619L270 619L184 0L285 0L372 619L575 619Z"/>
<glyph unicode="&#x165;" horiz-adv-x="386" d="M360 740L323 587L386 587L444 740ZM279 659L190 659L163 529L77 529L66 453L150 453L103 126C101 111 101 101 101 91C101 21 142 -12 225 -12C261 -12 299 -7 320 0L331 75C307 70 284 67 260 67C221 67 203 81 203 112C203 117 203 122 204 132L250 453L369 453L379 529L261 529Z"/>
<glyph unicode="&#x166;" horiz-adv-x="543" d="M575 619L586 700L79 700L68 619L270 619L242 421L144 421L136 356L233 356L184 0L285 0L335 356L436 356L445 421L344 421L372 619Z"/>
<glyph unicode="&#x167;" horiz-adv-x="414" d="M377 453L388 529L269 529L288 659L198 659L171 529L85 529L74 453L158 453L142 340L62 340L53 275L133 275L112 126C110 111 110 101 110 91C110 21 150 -12 234 -12C269 -12 307 -7 329 0L339 75C316 70 292 67 268 67C229 67 212 81 212 112C212 117 212 122 213 132L233 275L347 275L356 340L243 340L259 453Z"/>
<glyph unicode="&#x168;" horiz-adv-x="730" d="M349 801C384 801 419 760 481 760C526 760 575 786 592 858L523 858C518 842 507 826 482 826C447 826 412 868 350 868C306 868 257 842 240 770L308 770C313 786 326 801 349 801ZM575 700L499 162C460 112 401 68 311 68C219 68 185 107 185 183C185 195 186 208 188 222L255 700L153 700L87 226C84 206 83 187 83 168C83 59 139 -12 280 -12C384 -12 449 30 492 74L488 0L579 0L677 700Z"/>
<glyph unicode="&#x169;" horiz-adv-x="582" d="M416 634C461 634 510 660 527 732L458 732C453 716 442 700 417 700C382 700 347 742 285 742C241 742 192 716 175 644L243 644C248 660 261 675 284 675C319 675 354 634 416 634ZM545 529L445 529L396 181C386 117 350 68 265 68C189 68 160 106 160 157C160 164 161 173 162 182L211 529L111 529L62 178C60 166 60 156 60 146C60 55 122 -12 261 -12C417 -12 481 71 496 177Z"/>
<glyph unicode="&#x16a;" horiz-adv-x="730" d="M559 849L291 849L281 784L550 784ZM575 700L499 162C460 112 401 68 311 68C219 68 185 107 185 183C185 195 186 208 188 222L255 700L153 700L87 226C84 206 83 187 83 168C83 59 139 -12 280 -12C384 -12 449 30 492 74L488 0L579 0L677 700Z"/>
<glyph unicode="&#x16b;" horiz-adv-x="582" d="M476 638L486 703L218 703L208 638ZM545 529L445 529L396 181C386 117 350 68 265 68C189 68 160 106 160 157C160 164 161 173 162 182L211 529L111 529L62 178C60 166 60 156 60 146C60 55 122 -12 261 -12C417 -12 481 71 496 177Z"/>
<glyph unicode="&#x16c;" horiz-adv-x="730" d="M421 759C516 759 578 813 590 888L520 888C505 852 472 826 424 826C371 826 348 851 344 888L273 888C275 813 326 759 421 759ZM575 700L499 162C460 112 401 68 311 68C219 68 185 107 185 183C185 195 186 208 188 222L255 700L153 700L87 226C84 206 83 187 83 168C83 59 139 -12 280 -12C384 -12 449 30 492 74L488 0L579 0L677 700Z"/>
<glyph unicode="&#x16d;" horiz-adv-x="582" d="M338 614C435 614 487 677 510 759L439 759C422 714 393 680 340 680C285 680 261 718 261 759L190 759C189 677 244 614 338 614ZM545 529L445 529L396 181C386 117 350 68 265 68C189 68 160 106 160 157C160 164 161 173 162 182L211 529L111 529L62 178C60 166 60 156 60 146C60 55 122 -12 261 -12C417 -12 481 71 496 177Z"/>
<glyph unicode="&#x16e;" horiz-adv-x="730" d="M410 724C483 724 525 768 533 826C534 836 536 848 536 855C536 906 495 946 424 946C352 946 307 900 299 842C298 834 297 822 297 813C297 762 339 724 410 724ZM363 841C367 873 392 892 421 892C456 892 474 873 471 842C471 840 470 832 469 827C464 795 440 778 411 778C379 778 360 792 360 818C360 825 361 831 363 841ZM575 700L499 162C460 112 401 68 311 68C219 68 185 107 185 183C185 195 186 208 188 222L255 700L153 700L87 226C84 206 83 187 83 168C83 59 139 -12 280 -12C384 -12 449 30 492 74L488 0L579 0L677 700Z"/>
<glyph unicode="&#x16f;" horiz-adv-x="582" d="M348 601C421 601 463 645 471 703C472 713 474 725 474 732C474 783 433 823 362 823C290 823 245 777 237 719C236 711 235 699 235 690C235 639 277 601 348 601ZM349 655C317 655 298 669 298 695C298 702 299 708 301 718C305 750 330 769 359 769C394 769 412 750 409 719C409 717 408 709 407 704C402 672 378 655 349 655ZM545 529L445 529L396 181C386 117 350 68 265 68C189 68 160 106 160 157C160 164 161 173 162 182L211 529L111 529L62 178C60 166 60 156 60 146C60 55 122 -12 261 -12C417 -12 481 71 496 177Z"/>
<glyph unicode="&#x170;" horiz-adv-x="730" d="M469 885L381 885L286 746L352 746ZM502 746L629 885L541 885L437 746ZM575 700L499 162C460 112 401 68 311 68C219 68 185 107 185 183C185 195 186 208 188 222L255 700L153 700L87 226C84 206 83 187 83 168C83 59 139 -12 280 -12C384 -12 449 30 492 74L488 0L579 0L677 700Z"/>
<glyph unicode="&#x171;" horiz-adv-x="582" d="M316 759L221 620L287 620L404 759ZM476 759L371 620L437 620L564 759ZM545 529L445 529L396 181C386 117 350 68 265 68C189 68 160 106 160 157C160 164 161 173 162 182L211 529L111 529L62 178C60 166 60 156 60 146C60 55 122 -12 261 -12C417 -12 481 71 496 177Z"/>
<glyph unicode="&#x172;" horiz-adv-x="730" d="M579 0L579 1L677 700L575 700L499 162C460 112 401 68 311 68C219 68 185 107 185 183C185 195 186 208 188 222L255 700L153 700L87 226C84 206 83 187 83 168C83 59 139 -12 280 -12C384 -12 449 30 492 74L489 14C393 -19 345 -78 345 -147C345 -197 376 -230 456 -230C480 -230 503 -227 517 -223L535 -156C510 -161 491 -163 471 -163C436 -163 422 -150 422 -126C422 -61 490 -23 579 0Z"/>
<glyph unicode="&#x173;" horiz-adv-x="582" d="M445 529L396 181C386 117 350 68 265 68C189 68 160 106 160 157C160 164 161 173 162 182L211 529L111 529L62 178C60 166 60 156 60 146C60 67 107 6 210 -9C149 -43 118 -92 118 -147C118 -197 149 -230 229 -230C253 -230 276 -227 290 -223L308 -156C283 -161 264 -163 244 -163C209 -163 195 -150 195 -126C195 -65 255 -28 336 -4C438 19 483 90 496 177L545 529Z"/>
<glyph unicode="&#x174;" horiz-adv-x="891" d="M533 823L593 745L695 745L579 879L504 879L349 745L450 745ZM809 700L626 84L576 700L441 700L215 84L206 700L103 700L129 0L276 0L497 609L543 0L689 0L910 700Z"/>
<glyph unicode="&#x175;" horiz-adv-x="795" d="M471 699L529 620L630 620L515 759L440 759L285 620L386 620ZM692 529L539 83L498 529L375 529L209 83L178 529L81 529L126 0L257 0L426 442L463 0L600 0L788 529Z"/>
<glyph unicode="&#x176;" horiz-adv-x="571" d="M372 823L432 745L534 745L418 879L343 879L188 745L289 745ZM624 700L519 700L297 373L174 700L70 700L239 289L198 0L300 0L341 290Z"/>
<glyph unicode="&#x177;" horiz-adv-x="539" d="M155 620L256 620L341 699L399 620L500 620L385 759L310 759ZM95 -212C172 -212 222 -182 271 -74L543 529L446 529L242 75L168 529L70 529L168 0L213 0L185 -65C161 -118 129 -138 88 -138C65 -138 41 -136 20 -132L9 -203C25 -207 61 -212 95 -212Z"/>
<glyph unicode="&#x178;" horiz-adv-x="571" d="M241 769C277 769 301 796 301 828C301 854 284 880 249 880C213 880 188 853 188 821C188 795 206 769 241 769ZM468 769C504 769 529 796 529 828C529 854 512 880 477 880C441 880 416 853 416 821C416 795 433 769 468 769ZM624 700L519 700L297 373L174 700L70 700L239 289L198 0L300 0L341 290Z"/>
<glyph unicode="&#x179;" horiz-adv-x="567" d="M463 889L302 746L386 746L580 889ZM576 700L125 700L114 617L449 617L22 78L12 0L486 0L499 85L139 85L566 623Z"/>
<glyph unicode="&#x17a;" horiz-adv-x="461" d="M378 759L216 616L302 616L492 759ZM454 529L90 529L79 448L333 448L12 75L2 0L387 0L399 82L123 82L444 455Z"/>
<glyph unicode="&#x17b;" horiz-adv-x="567" d="M354 756C392 756 423 787 423 825C423 859 399 881 365 881C327 881 297 851 297 813C297 779 320 756 354 756ZM576 700L125 700L114 617L449 617L22 78L12 0L486 0L499 85L139 85L566 623Z"/>
<glyph unicode="&#x17c;" horiz-adv-x="461" d="M284 630C322 630 353 661 353 699C353 733 329 755 295 755C257 755 227 725 227 687C227 653 250 630 284 630ZM454 529L90 529L79 448L333 448L12 75L2 0L387 0L399 82L123 82L444 455Z"/>
<glyph unicode="&#x17d;" horiz-adv-x="567" d="M312 755L387 755L542 889L440 889L355 811L298 889L197 889ZM576 700L125 700L114 617L449 617L22 78L12 0L486 0L499 85L139 85L566 623Z"/>
<glyph unicode="&#x17e;" horiz-adv-x="461" d="M232 620L308 620L462 759L357 759L276 681L215 759L117 759ZM454 529L90 529L79 448L333 448L12 75L2 0L387 0L399 82L123 82L444 455Z"/>
<glyph unicode="&#x192;" horiz-adv-x="413" d="M375 674C405 674 430 671 468 660L479 736C442 746 401 752 358 752C238 752 196 692 181 588L173 529L99 529L89 453L162 453L89 -72C82 -113 67 -134 20 -134C3 -134 -8 -133 -28 -130L-37 -201C-12 -208 12 -210 44 -210C132 -210 174 -176 187 -87L262 453L395 453L406 529L273 529L282 595C289 647 317 674 375 674Z"/>
<glyph unicode="&#x218;" horiz-adv-x="642" d="M304 -12C483 -12 548 74 562 162C567 193 569 211 569 224C569 311 513 360 413 392L323 421C245 446 216 470 216 516C216 526 218 538 220 547C226 577 259 631 360 631C472 631 515 575 511 510L609 510C610 632 525 712 367 712C192 712 130 625 118 550C115 531 113 512 113 500C113 424 162 373 252 344L343 314C419 289 465 270 465 212C465 205 464 193 461 171C456 128 422 69 307 69C183 69 136 131 140 199L45 199C41 75 141 -12 304 -12ZM180 -307L236 -307L294 -211C330 -154 335 -140 335 -118C335 -89 314 -69 276 -69C236 -69 212 -99 212 -135C212 -153 219 -167 230 -178Z"/>
</font>
</defs>
</svg>
